<?xml version="1.0" encoding="UTF-8" standalone="no"?>
<svg
   width="1024"
   height="1024"
   version="1.1"
   id="svg6"
   xml:space="preserve"
   xmlns:xlink="http://www.w3.org/1999/xlink"
   xmlns="http://www.w3.org/2000/svg"
   xmlns:svg="http://www.w3.org/2000/svg"><defs
     id="defs6"><linearGradient
       id="linearGradient11"><stop
         style="stop-color:#ffffff;stop-opacity:1;"
         offset="0"
         id="stop8" /><stop
         style="stop-color:#0d7ab6;stop-opacity:1;"
         offset="0.31817868"
         id="stop9" /><stop
         style="stop-color:#8000b6;stop-opacity:1;"
         offset="0.80230701"
         id="stop10" /><stop
         style="stop-color:#ffffff;stop-opacity:1;"
         offset="1"
         id="stop11" /></linearGradient><linearGradient
       id="linearGradient6"><stop
         style="stop-color:#ffffff;stop-opacity:1;"
         offset="0"
         id="stop6" /><stop
         style="stop-color:#0d7ab6;stop-opacity:1;"
         offset="0.21049666"
         id="stop2" /><stop
         style="stop-color:#8000b6;stop-opacity:1;"
         offset="0.86717421"
         id="stop7" /><stop
         style="stop-color:#ffffff;stop-opacity:1;"
         offset="1"
         id="stop3" /></linearGradient><linearGradient
       xlink:href="#linearGradient6"
       id="linearGradient3"
       x1="-31.792984"
       y1="890.46167"
       x2="851.75159"
       y2="217.24757"
       gradientUnits="userSpaceOnUse" /><linearGradient
       xlink:href="#linearGradient11"
       id="linearGradient8"
       x1="22.224457"
       y1="885.98376"
       x2="851.75159"
       y2="217.24757"
       gradientUnits="userSpaceOnUse" /></defs><path
     style="display:inline;fill:#000000;stroke-width:43.181"
     d="m 564.63819,1002.5445 c -12.88263,-2.84559 -28.59577,-11.69814 -41.1187,-23.17091 l -11.19037,-10.25246 -7.19181,-15.77879 -7.19223,-15.77835 0.8334,-22.48393 0.83339,-22.48394 -44.15563,-43.7208 c -48.21292,-47.73922 -67.50016,-63.4826 -82.82468,-67.60941 l -10.01023,-2.6945 -25.95396,1.5977 c -14.27478,0.8809 -35.33806,3.11335 -46.80781,4.9615 -11.46932,1.84815 -30.92799,4.67565 -43.24149,6.28069 l -22.38764,2.91903 -3.80857,7.98893 c -6.42188,13.46687 -18.96683,25.69962 -34.61608,33.75418 l -14.93287,7.6858 -25.76007,0.12954 -25.76007,0.12953 -15.33877,-8.31796 c -8.43628,-4.57588 -19.598578,-12.94049 -24.805351,-18.589 l -9.46701,-10.27018 -5.554807,-16.69292 -5.554807,-16.69292 1.170201,-16.23953 1.170212,-16.23953 6.754381,-13.49364 c 11.283196,-22.54006 27.160863,-35.61744 54.909871,-45.22436 l 8.33264,-2.88449 12.05225,-31.75923 c 6.62915,-17.46758 13.5826,-37.27947 15.45277,-44.02609 13.31574,-48.03716 16.64197,-60.99796 19.83218,-77.28066 1.98201,-10.12034 3.59266,-26.12841 3.57971,-35.57383 l -0.0255,-17.1731 -6.01642,-28.21363 c -7.03503,-32.99074 -17.24951,-72.47203 -20.78733,-80.34782 l -2.47859,-5.51982 h -5.27413 c -8.12452,0 -29.91712,-13.53856 -40.80349,-25.349 l -9.792161,-10.62297 -5.238285,-13.99971 -5.237866,-13.99973 v -18.10494 -18.10452 l 4.967977,-11.58936 c 2.73336,-6.37395 9.318465,-16.78619 14.636645,-23.1377 l 9.6691,-11.54876 15.41692,-7.11926 15.41692,-7.11925 23.30654,0.2159 23.30696,0.21591 12.26687,5.46758 c 14.38922,6.41325 29.18865,19.90344 35.72583,32.56541 l 4.64282,8.99287 6.80275,1.32567 c 3.73948,0.72976 24.494,2.05541 46.11648,2.94926 l 39.31417,1.62361 14.65996,-3.0313 c 32.32274,-6.68702 76.72148,-35.50821 144.68757,-93.92394 l 31.89394,-27.41175 0.12954,-19.67846 0.12955,-19.678906 8.02001,-15.626349 c 9.99987,-19.491059 21.52661,-30.55404 41.99745,-40.31079 l 15.94675,-7.60073 20.85342,-0.08641 20.85342,-0.0863 13.92329,6.474131 c 7.65772,3.558118 18.80232,10.971005 24.76562,16.467948 l 10.84276,9.994687 8.0688,17.50516 8.06881,17.50516 -1.27816,20.487239 -1.27815,20.48768 -6.72933,11.72667 c -3.70062,6.44952 -10.07846,15.27832 -14.17202,19.61887 l -7.44312,7.8922 10.59318,50.98859 c 9.74682,46.91146 23.72883,97.51876 33.22305,120.24797 7.56402,18.10753 29.57858,34.53791 90.55927,67.58825 l 34.20888,18.54107 12.40502,-6.54711 12.40461,-6.5471 h 25.76012 25.76011 l 14.72043,8.33437 c 8.09594,4.5841 18.44992,11.76035 23.00806,15.94675 l 8.28826,7.61239 8.27212,17.92272 8.27179,17.92272 v 17.72021 17.72019 l -8.20657,17.10401 -8.20657,17.10445 -9.88755,8.91774 c -5.43868,4.9045 -15.26971,12.07169 -21.84742,15.92733 l -11.95904,7.01044 -25.96649,0.88953 -25.96691,0.88952 -9.75542,-4.97704 -9.75552,-4.97704 -7.21162,5.43 c -3.96838,2.98813 -21.01144,14.14525 -37.87843,24.79758 -32.20744,20.34086 -42.04451,28.09013 -69.61819,54.84337 l -16.87083,16.36906 -15.58188,32.09214 c -15.34825,31.61155 -26.6889,62.76278 -43.43968,119.32518 l -8.51401,28.74908 3.60993,2.99675 c 1.98633,1.64952 7.09811,9.68767 11.35878,17.86443 l 7.74754,14.86724 0.0259,22.08019 0.0259,22.08018 -7.694,16.23781 -7.69356,16.23822 -14.98296,12.46896 c -19.98418,16.63073 -50.13059,23.70593 -76.35055,17.91883 z m 34.83976,-25.15292 13.00095,-2.7679 11.72235,-9.78352 11.72279,-9.78397 5.32724,-11.36697 5.32768,-11.36741 0.0125,-14.71999 0.0125,-14.72041 -5.18431,-9.81332 c -2.84995,-5.3972 -8.59778,-13.05579 -12.7695,-17.01894 -12.70991,-12.07514 14.66816,-106.60361 53.95254,-186.28127 l 12.25781,-24.86191 16.68688,-17.17353 c 23.04917,-23.72193 39.13929,-36.80319 67.75968,-55.08907 13.4932,-8.62152 33.5357,-21.55727 44.53858,-28.74691 23.12782,-15.1125 23.23877,-15.1315 39.1234,-6.66845 l 12.01901,6.40289 18.64854,-1.0709 18.64864,-1.07088 8.33818,-5.72797 c 15.11818,-10.3859 22.37772,-18.27464 28.25169,-30.69912 l 5.79921,-12.26687 0.0241,-10.12164 0.0241,-10.1212 -5.88257,-13.18575 C 939.44033,458.2981 920.19323,444.04706 897.55209,441.391 l -12.75045,-1.49407 -10.09014,2.72041 c -5.54963,1.49407 -14.15479,5.47838 -19.12274,8.84952 -14.05191,9.53611 -13.67587,9.67213 -89.52202,-32.35857 -34.40126,-19.06313 -63.40165,-42.11015 -70.92206,-56.36248 -10.28875,-19.49753 -36.82781,-120.4263 -51.19414,-194.69121 l -1.19611,-6.17963 10.09443,-8.11199 c 5.55178,-4.46146 12.80058,-12.399 16.10868,-17.63902 l 6.01425,-9.52747 1.54157,-13.10285 1.54156,-13.10285 -5.47967,-12.738409 -5.48011,-12.738838 -9.79087,-8.845626 c -5.38511,-4.86478 -13.8093,-10.553446 -18.72028,-12.640822 l -8.92898,-3.795614 -13.49364,0.0432 -13.49364,0.0432 -11.0401,5.006839 c -28.96497,13.136536 -41.74656,38.651774 -35.91582,71.69735 l 1.95611,11.08588 -33.67603,29.09106 C 446.01643,233.9575 395.40136,266.88346 359.29985,273.73371 l -15.20577,2.88449 -32.63494,-1.49838 c -17.94906,-0.82476 -36.49833,-1.43793 -41.22104,-1.36884 -4.72272,0.0864 -16.03701,-0.60022 -25.14216,-1.49838 l -16.55518,-1.62793 -5.0375,-11.40497 c -9.72524,-22.01931 -25.38182,-33.37333 -49.90519,-36.19046 l -12.53459,-1.43792 -13.88875,5.23396 -13.88917,5.23355 -8.27176,10.33236 c -28.986568,36.20557 -9.00541,87.95113 36.36274,94.1692 l 11.28839,1.54588 3.17381,7.60159 c 10.17604,24.36361 27.83752,100.92185 30.58987,132.59816 l 2.12019,24.40851 -4.63461,24.65854 c -2.54769,13.5623 -7.56835,35.14634 -11.15324,47.96507 -3.58402,12.81915 -7.09896,26.06708 -7.80755,29.44039 -0.70817,3.37244 -8.35986,25.45392 -17.00168,49.06748 -8.64182,23.61354 -16.12336,44.1742 -16.62556,45.69028 -0.5009,1.51566 -5.14114,3.53653 -10.30861,4.48738 -30.79455,5.67096 -51.89281,25.33603 -56.220841,52.40148 l -1.567469,9.80209 4.257646,13.11668 c 4.928254,15.18677 12.680544,24.41455 28.188154,33.55512 l 11.04009,6.50694 18.4003,-0.21591 18.39987,-0.2159 10.40966,-5.51508 c 12.24743,-6.48795 20.97777,-16.22226 27.61297,-30.78678 l 4.79526,-10.52668 16.59749,-2.88881 c 9.1289,-1.58906 24.88696,-3.86902 35.01852,-5.06427 10.13157,-1.19611 25.04501,-3.44153 33.14101,-4.99389 8.09602,-1.5502 32.38406,-2.97949 53.97372,-3.16949 l 39.25371,-0.34544 8.58698,4.90709 c 18.42363,10.52753 37.5049,27.11035 86.82281,75.45498 l 51.24942,50.23767 -4.02015,11.80483 c -13.47939,39.55945 12.83772,77.60669 56.57752,81.79569 1.61928,0.17272 8.7964,-0.96294 15.94718,-2.48724 z M 453.70698,556.37389 c -7.80152,-4.83843 -12.93618,-15.77144 -12.16453,-25.90084 2.32313,-30.46812 37.39564,-118.45941 54.5303,-136.80228 l 6.74661,-7.22246 h 12.62656 12.62614 l 5.86398,6.32732 c 3.22563,3.48039 6.54582,9.43204 7.37922,13.22635 l 1.51565,6.89946 -3.78698,14.61333 c -2.08133,8.03729 -8.75107,28.3056 -14.81886,45.04085 -6.06781,16.73481 -11.04918,31.32913 -11.0699,32.43154 -0.0208,1.10112 -5.07247,12.42449 -11.2262,25.16074 l -11.18907,23.15669 -7.08946,3.66607 c -9.2835,4.80043 -21.63716,4.5543 -29.94346,-0.59591 z m -120.91122,-37.9734 c -7.41851,-4.28356 -10.86565,-8.30673 -14.47774,-16.89717 l -3.28176,-7.80886 4.6031,-21.11596 c 13.98763,-64.1627 43.24538,-120.37793 65.60927,-126.06055 l 5.8372,-1.48543 9.3785,3.75243 9.37805,3.75243 2.75495,8.34172 2.75064,8.34128 -3.95107,14.13314 c -11.8316,42.31785 -24.40808,76.29831 -39.74771,107.39297 l -10.90839,22.11301 -7.42369,4.26197 c -8.58784,4.92868 -13.65168,5.2439 -20.52006,1.27816 z"
     id="path36" /><path
     style="font-variation-settings:'wght' 800;display:inline;fill:url(#linearGradient3);fill-opacity:1;fill-rule:nonzero;stroke:url(#linearGradient8);stroke-width:7.8;stroke-dasharray:none;paint-order:normal"
     d="m 561.21696,971.98531 c -13.18014,-6.11529 -27.98693,-20.89227 -32.24068,-32.17505 -3.91653,-10.39237 -3.81721,-32.54554 0.2159,-44.07229 3.18675,-9.1479 3.15653,-9.19756 -27.48127,-40.18081 -41.8148,-42.28806 -90.14344,-85.84564 -104.82283,-94.4745 -11.97584,-7.0398 -12.75309,-7.1158 -57.78141,-5.65067 -37.77477,1.23067 -100.28537,8.45399 -128.0633,14.8016 -4.05038,0.92408 -8.87846,6.49528 -13.44916,15.5158 -4.17129,8.23291 -11.95856,17.56908 -18.76691,22.50078 -10.54525,7.63915 -13.69099,8.42937 -33.54346,8.42937 -20.36504,0 -22.76547,-0.64772 -34.10481,-9.20101 -14.107675,-10.6411 -24.909419,-29.8964 -24.820032,-44.24502 0.08641,-13.05449 8.31581,-30.46811 19.279042,-40.76765 4.89629,-4.59964 17.09062,-10.93991 27.57756,-14.33783 l 18.798,-6.09111 13.85896,-37.80673 c 16.8026,-45.83796 30.73496,-93.77409 38.72129,-133.22905 5.26377,-26.00318 5.5954,-32.29898 2.8629,-54.36966 -5.31645,-42.95262 -24.8455,-125.06567 -32.10639,-134.99516 -1.78338,-2.43972 -8.87931,-5.70334 -15.76582,-7.25095 -28.32028,-6.36315 -45.90879,-27.30034 -45.90879,-54.64992 0,-15.62592 8.37885,-34.44594 19.53899,-43.88791 20.05586,-16.96799 55.82746,-14.704 75.26843,4.76373 4.41914,4.42476 10.59964,13.13568 13.73459,19.35676 3.13494,6.22153 6.03109,11.69214 6.43484,12.1572 0.38863,0.46635 27.16,2.05541 59.45813,3.52789 48.98111,2.23677 61.41552,1.99495 74.95018,-1.47248 38.71008,-9.91696 85.75452,-41.04573 165.97625,-109.82491 l 29.37433,-25.18405 -0.98453,-21.59311 c -1.43361,-31.458675 7.98375,-47.845888 35.39895,-61.603797 36.41414,-18.274214 82.55653,12.178349 82.55653,54.484967 0,13.83089 -8.73682,28.95419 -24.61664,42.61278 l -10.03355,8.62973 7.65168,35.05868 c 10.56899,48.42537 28.51373,118.0237 37.3015,144.67245 11.55957,35.05393 29.02154,50.79083 99.62255,89.7833 53.25816,29.41406 54.16114,29.64033 76.38555,19.12661 20.3551,-9.6298 29.75304,-10.44636 48.13469,-4.18424 15.56805,5.30436 28.72621,17.69342 37.7912,35.5829 8.53993,16.8527 8.54381,24.48797 0.021,41.19082 -12.09808,23.70985 -29.03838,35.84544 -53.24221,38.14138 -13.41078,1.27384 -18.92538,0.34545 -30.78291,-5.14287 -18.16626,-8.4164 -18.17014,-8.41511 -74.10642,28.36088 -27.8928,18.33856 -51.26411,36.44436 -68.76927,53.2759 -24.86622,23.90977 -27.52315,27.60175 -42.68876,59.31995 -28.03011,58.62517 -49.61285,122.97872 -52.53059,156.63273 -1.56316,18.00692 -1.32135,18.89299 8.62541,31.92503 9.24333,12.10926 10.22483,15.08529 10.15791,30.80449 -0.0864,20.99159 -5.91322,34.48178 -20.20009,46.78752 -17.50819,15.08054 -42.10972,18.58123 -62.87504,8.94667 z m -73.7165,-415.25172 c 2.86289,-1.46815 9.67859,-12.39339 15.14661,-24.27292 13.04024,-28.33108 40.24904,-109.33222 40.24904,-119.8222 0,-4.52062 -2.63836,-12.49098 -5.867,-17.71242 -5.45463,-8.82578 -6.90638,-9.49292 -20.64831,-9.49292 -11.70034,0 -16.02751,1.32565 -20.76145,6.36574 -9.57108,10.1877 -30.79001,55.3966 -42.91849,91.44017 -16.90213,50.22998 -14.39026,70.70534 6.46809,76.57595 9.34791,2.63098 19.32308,1.54588 28.33151,-3.08312 z M 352.31315,518.90527 c 8.15129,-3.88629 11.77202,-9.02915 22.32633,-31.70956 13.44269,-28.88595 25.92762,-62.11333 35.93784,-95.64643 7.78857,-26.0904 5.69774,-36.2997 -8.90522,-43.47596 -14.85125,-7.29846 -25.44399,-2.6254 -40.54871,17.89423 -17.99398,24.44348 -40.61394,83.96638 -45.61257,120.02773 -1.97769,14.27738 6.35193,29.97239 18.21074,34.30906 4.20583,1.53725 7.91854,2.89745 8.25319,3.01836 0.34544,0.12954 4.98741,-1.86542 10.3384,-4.41699 z"
     id="path45" /></svg>
