<?xml version="1.0" encoding="UTF-8" standalone="no"?>
<svg
   width="187"
   height="69"
   version="1.1"
   id="svg8"
   xmlns:xlink="http://www.w3.org/1999/xlink"
   xmlns="http://www.w3.org/2000/svg"
   xmlns:svg="http://www.w3.org/2000/svg">
  <defs
     id="defs8">
    <linearGradient
       xlink:href="#linearGradient6"
       id="linearGradient3"
       x1="-31.792984"
       y1="890.46167"
       x2="851.75159"
       y2="217.24757"
       gradientUnits="userSpaceOnUse"
       gradientTransform="matrix(0.06664424,0,0,0.06664424,0.9266228,-0.0042166)" />
    <linearGradient
       id="linearGradient6">
      <stop
         style="stop-color:#ffffff;stop-opacity:1;"
         offset="0"
         id="stop6" />
      <stop
         style="stop-color:#0d7ab6;stop-opacity:1;"
         offset="0.21049666"
         id="stop2" />
      <stop
         style="stop-color:#8000b6;stop-opacity:1;"
         offset="0.86717421"
         id="stop7" />
      <stop
         style="stop-color:#ffffff;stop-opacity:1;"
         offset="1"
         id="stop3" />
    </linearGradient>
    <linearGradient
       xlink:href="#linearGradient11"
       id="linearGradient8"
       x1="22.224457"
       y1="885.98376"
       x2="851.75159"
       y2="217.24757"
       gradientUnits="userSpaceOnUse"
       gradientTransform="matrix(0.06664424,0,0,0.06664424,0.9266228,-0.0042166)" />
    <linearGradient
       id="linearGradient11">
      <stop
         style="stop-color:#ffffff;stop-opacity:1;"
         offset="0"
         id="stop8" />
      <stop
         style="stop-color:#0d7ab6;stop-opacity:1;"
         offset="0.31817868"
         id="stop9" />
      <stop
         style="stop-color:#8000b6;stop-opacity:1;"
         offset="0.80230701"
         id="stop10" />
      <stop
         style="stop-color:#ffffff;stop-opacity:1;"
         offset="1"
         id="stop11" />
    </linearGradient>
  </defs>
  <path
     style="font-size:17.1207px;font-family:Cantarell;-inkscape-font-specification:'Cantarell, @wght=800';font-variation-settings:'wght' 800;fill:#ffffff;fill-opacity:1;stroke:#ffffff;stroke-width:0.496911;stroke-linecap:square;stroke-linejoin:round;stroke-miterlimit:0;stroke-dasharray:none;stroke-opacity:1;paint-order:normal"
     d="m 71.691505,42.759278 h 4.50594 V 28.709783 l -0.24729,0.292712 8.160133,13.756783 h 5.330177 v -20.31321 h -4.560878 l -0.05491,14.283638 0.439611,-0.292694 -8.132648,-13.990944 h -5.440088 z m 21.650427,0 h 13.682628 v -4.449 h -8.929416 v -3.629452 h 8.160126 v -4.449004 h -8.160126 v -3.336756 h 8.929416 V 22.446068 H 93.341932 Z m 17.007118,0 h 7.58313 c 4.80819,0 7.99529,-2.66354 7.99529,-6.644239 0,-3.600174 -2.44529,-5.766134 -6.59404,-5.766134 h -5.87969 v 3.863594 h 4.83564 c 1.70347,0 2.69258,0.936636 2.69258,2.400128 0,1.434212 -0.82426,2.165958 -2.41784,2.165958 h -3.5443 V 26.426759 h 1.86833 c 1.59354,0 2.63761,0.819552 2.63761,2.048878 0,1.112248 -0.85173,2.04888 -2.39034,2.546462 l 3.68167,0.790295 c 2.11558,-0.585407 3.48935,-2.429397 3.48935,-4.595361 0,-3.131867 -2.4453,-4.770965 -7.14354,-4.770965 h -6.81385 z m 26.12888,0.292697 c 5.19281,0 8.5448,-3.424562 8.5448,-8.693115 V 22.446068 h -4.69826 v 12.498177 c 0,2.341593 -1.23639,3.717261 -3.32451,3.717261 -2.44529,0 -3.87398,-1.609831 -3.87398,-4.302646 V 22.446068 h -4.75322 v 12.205484 c 0,5.239279 3.04977,8.400423 8.10517,8.400423 z m 12.06162,-0.292697 h 12.63854 v -4.478277 h -7.88534 V 22.446068 h -4.7532 z m 15.06866,0 h 5.0829 l 5.05542,-18.147256 h -1.31881 l 5.30272,18.147256 h 5.24775 l -6.51163,-20.31321 h -6.07198 z m 5.30272,-4.185583 h 8.73708 l -0.9891,-4.566083 h -6.78637 z"
     id="text7"
     aria-label="NEBULA" />
  <path
     style="display:inline;fill:#000000;stroke-width:2.87777"
     d="m 38.556508,66.809597 c -0.858557,-0.18964 -1.905745,-0.779611 -2.740331,-1.544207 l -0.745771,-0.683266 -0.479294,-1.051567 -0.479314,-1.051533 0.0555,-1.498427 0.0555,-1.498424 -2.942719,-2.913739 c -3.21312,-3.181545 -4.498505,-4.230749 -5.519793,-4.50578 L 25.09316,51.883083 23.363478,51.98956 c -0.951329,0.05871 -2.355076,0.207488 -3.119468,0.330656 -0.764364,0.123168 -2.061174,0.311603 -2.881797,0.418572 l -1.492005,0.194534 -0.253821,0.532417 c -0.427987,0.897491 -1.264035,1.712731 -2.30697,2.249522 l -0.995188,0.512215 -1.71676,0.0087 -1.7167606,0.0087 -1.0222391,-0.554343 C 7.2962396,55.385494 6.5523366,54.828039 6.2053324,54.4516 l -0.6309215,-0.68445 -0.3701951,-1.112484 -0.370195,-1.112489 0.077991,-1.082272 0.077992,-1.082268 0.4501408,-0.899274 c 0.75196,-1.502167 1.8101139,-2.373699 3.6594261,-3.013943 l 0.5553231,-0.192237 0.8032132,-2.116566 c 0.441795,-1.164114 0.905202,-2.484463 1.029839,-2.934084 0.887415,-3.201401 1.109091,-4.065166 1.321698,-5.150313 0.132088,-0.674463 0.23943,-1.741305 0.238569,-2.370791 l -0.0018,-1.144489 -0.400962,-1.880275 C 12.17665,27.476996 11.495917,24.845794 11.26014,24.320919 l -0.165182,-0.367865 h -0.351493 c -0.54145,0 -1.9938017,-0.902267 -2.7193178,-1.689362 l -0.6525901,-0.70796 -0.3491021,-0.933 -0.3490726,-0.933004 v -1.206589 -1.206561 l 0.3310872,-0.772366 c 0.1821622,-0.424787 0.6210205,-1.1187 0.975447,-1.541993 l 0.6443895,-0.769659 1.0274493,-0.474458 1.0274486,-0.474456 1.553246,0.0144 1.553276,0.0144 0.817515,0.364383 c 0.958959,0.427405 1.945254,1.326448 2.380923,2.170298 l 0.309418,0.599323 0.453361,0.08834 c 0.249216,0.04863 1.632386,0.136984 3.0734,0.196553 l 2.620061,0.108202 0.977002,-0.202018 c 2.154129,-0.445653 5.113044,-2.366417 9.642595,-6.259489 l 2.125549,-1.8268366 0.0089,-1.3114542 0.0089,-1.3114866 0.534487,-1.0414043 C 37.404209,3.547885 38.172405,2.8105985 39.536666,2.16037 l 1.062765,-0.5065454 1.389757,-0.00571 1.389756,-0.00571 0.927908,0.4314645 c 0.51034,0.2371264 1.25307,0.7311514 1.650486,1.0974941 l 0.722608,0.6660876 0.537744,1.1666168 0.537734,1.1666208 -0.08521,1.3653545 -0.08521,1.3653869 -0.448476,0.781514 c -0.246619,0.4298222 -0.671666,1.0182132 -0.944479,1.3074852 l -0.496042,0.525968 0.705978,3.398098 c 0.649565,3.126378 1.58139,6.499064 2.214119,8.013835 0.504101,1.20676 1.971249,2.301751 6.035261,4.504365 l 2.27982,1.235656 0.826724,-0.436327 0.826694,-0.436326 h 1.716758 1.716768 l 0.981035,0.555436 c 0.539544,0.305503 1.229581,0.783761 1.533351,1.062758 l 0.552366,0.507324 0.551294,1.194446 0.551264,1.194446 v 1.18095 1.180949 l -0.546925,1.139883 -0.546915,1.139913 -0.658952,0.594317 c -0.362455,0.326854 -1.017639,0.804506 -1.456,1.061463 l -0.797007,0.467206 -1.730514,0.05929 -1.730544,0.05928 -0.650146,-0.331691 -0.650146,-0.33169 -0.480613,0.361878 c -0.264469,0.199143 -1.400295,0.942699 -2.524383,1.652615 -2.14644,1.355602 -2.802027,1.872045 -4.639649,3.654994 l -1.124344,1.090902 -1.03844,2.138757 c -1.022874,2.106729 -1.778662,4.182779 -2.895005,7.952334 l -0.567412,1.915961 0.240578,0.199718 c 0.132377,0.109932 0.473046,0.645627 0.756998,1.190561 l 0.516332,0.990814 0.002,1.471521 0.002,1.471516 -0.512761,1.082156 -0.51273,1.082185 -0.99853,0.830983 c -1.331829,1.108344 -3.340912,1.579864 -5.088322,1.194186 z m 2.321866,-1.676295 0.866438,-0.184467 0.781224,-0.652014 0.781263,-0.652045 0.355026,-0.757544 0.355055,-0.757571 7.29e-4,-0.981004 7.28e-4,-0.981029 -0.345511,-0.654001 c -0.189931,-0.359694 -0.57299,-0.870096 -0.851009,-1.134215 -0.847043,-0.804739 0.977541,-7.104515 3.59562,-12.414573 l 0.816914,-1.6569 1.112082,-1.144518 c 1.536097,-1.580931 2.608407,-2.452719 4.515794,-3.67137 0.899245,-0.574573 2.23496,-1.436667 2.968244,-1.915817 1.541331,-1.007161 1.548721,-1.008427 2.607343,-0.444411 l 0.801003,0.426715 1.242816,-0.07137 1.242827,-0.07137 0.555692,-0.381735 c 1.007533,-0.692162 1.491344,-1.217898 1.882807,-2.045919 l 0.386484,-0.817519 9.84e-4,-0.674548 9.84e-4,-0.67452 -0.392034,-0.878752 c -0.626431,-1.404094 -1.909139,-2.353842 -3.418048,-2.530853 l -0.849739,-0.09957 -0.672453,0.181301 c -0.369845,0.09957 -0.943328,0.365102 -1.274413,0.589769 -0.936479,0.635528 -0.911416,0.644589 -5.966135,-2.156512 -2.292642,-1.27045 -4.225348,-2.806401 -4.726546,-3.756236 -0.685688,-1.299397 -2.454362,-8.025718 -3.41179,-12.975048 l -0.0797,-0.411836 0.672729,-0.540615 C 44.80378,9.9458732 45.286873,9.4168808 45.507337,9.0676636 L 45.908148,8.4327119 46.010888,7.5594833 46.113627,6.6862557 45.748436,5.8373112 45.383216,4.9883421 44.730709,4.398833 C 44.371826,4.074624 43.810397,3.6955081 43.48311,3.5563937 l -0.595062,-0.2529559 -0.899274,0.00285 -0.899274,0.00285 -0.735763,0.333677 c -1.930344,0.875474 -2.78216,2.5759156 -2.39358,4.7782148 l 0.13036,0.7388095 -2.244308,1.9387519 C 30.649598,15.587654 27.27639,17.78198 24.870432,18.23851 l -1.013378,0.192233 -2.174929,-0.09986 c -1.196201,-0.05497 -2.432403,-0.09583 -2.747146,-0.09123 -0.314739,0.0057 -1.068771,-0.04 -1.675578,-0.09986 L 16.156093,18.03131 15.820372,17.271234 c -0.648129,-1.467462 -1.69155,-2.224141 -3.325892,-2.411886 l -0.835357,-0.09583 -0.925606,0.348816 -0.9256344,0.348783 -0.5512651,0.688595 c -1.9317869,2.412891 -0.6001589,5.861435 2.4233685,6.275833 l 0.752305,0.103026 0.211518,0.506599 c 0.678173,1.623698 1.855208,6.725862 2.038637,8.836904 l 0.141299,1.626688 -0.308872,1.643351 c -0.169786,0.903846 -0.504386,2.342299 -0.743299,3.196593 -0.238852,0.854323 -0.473106,1.737221 -0.520328,1.962033 -0.04719,0.224755 -0.557136,1.696358 -1.133065,3.270065 -0.575924,1.573705 -1.074526,2.943954 -1.107995,3.044994 -0.03339,0.101007 -0.342626,0.235686 -0.687011,0.299058 -2.0522785,0.377936 -3.4583547,1.688499 -3.7467954,3.492254 l -0.104462,0.653252 0.283749,0.874154 c 0.3284382,1.01211 0.8450834,1.627087 1.8785773,2.236252 l 0.7357565,0.433654 1.2262766,-0.0144 1.226244,-0.0144 0.693742,-0.367547 c 0.816221,-0.432384 1.39805,-1.081122 1.840247,-2.051761 l 0.319576,-0.701543 1.106129,-0.192523 c 0.608389,-0.105901 1.658569,-0.257846 2.333781,-0.337503 0.67521,-0.07971 1.669107,-0.22936 2.208657,-0.332816 0.539552,-0.103312 2.15821,-0.198564 3.597039,-0.211229 l 2.616032,-0.02301 0.572273,0.327031 c 1.22783,0.701597 2.499487,1.80675 5.786241,5.02864 l 3.415479,3.34805 -0.267922,0.786724 c -0.898319,2.636412 0.855565,5.17204 3.770565,5.451212 0.107914,0.0115 0.586235,-0.06418 1.062784,-0.16576 z M 31.163578,37.074898 c -0.519924,-0.322451 -0.862118,-1.051074 -0.810694,-1.72614 0.154821,-2.030526 2.492206,-7.894639 3.634133,-9.117084 l 0.449617,-0.481335 h 0.841484 0.841464 l 0.390804,0.421679 c 0.214964,0.231949 0.436235,0.628592 0.491782,0.881461 l 0.101007,0.459808 -0.252385,0.973895 c -0.138704,0.535638 -0.583205,1.886406 -0.987588,3.001713 -0.404383,1.115277 -0.736363,2.087907 -0.737741,2.161374 -9.84e-4,0.07339 -0.338052,0.828021 -0.748162,1.67682 l -0.745692,1.543258 -0.472465,0.244322 c -0.618698,0.319923 -1.441997,0.303521 -1.995564,-0.03972 z m -8.058034,-2.530709 c -0.494402,-0.285473 -0.724133,-0.553594 -0.964859,-1.126097 l -0.21871,-0.520415 0.306771,-1.407259 c 0.932192,-4.276073 2.882053,-8.022495 4.372476,-8.40121 l 0.389022,-0.09899 0.625015,0.250077 0.624995,0.250077 0.183604,0.555927 0.183308,0.5559 -0.263307,0.941891 c -0.788515,2.820241 -1.626664,5.084844 -2.64896,7.157123 l -0.72698,1.473705 -0.494745,0.284035 c -0.572334,0.328468 -0.909808,0.349478 -1.367547,0.08518 z"
     id="path36" />
  <path
     style="font-variation-settings:'wght' 800;display:inline;fill:url(#linearGradient3);fill-opacity:1;fill-rule:nonzero;stroke:url(#linearGradient8);stroke-width:0.519825;stroke-dasharray:none;paint-order:normal"
     d="m 38.328496,64.773004 c -0.878384,-0.40755 -1.865164,-1.392348 -2.148654,-2.144282 -0.261014,-0.692593 -0.254392,-2.168971 0.01437,-2.937162 0.212385,-0.609659 0.210368,-0.612965 -1.831463,-2.677821 -2.786716,-2.818256 -6.007542,-5.721117 -6.98584,-6.296181 -0.79812,-0.469162 -0.849917,-0.474227 -3.850797,-0.376584 -2.517469,0.08202 -6.68344,0.563409 -8.534681,0.986442 -0.269932,0.06159 -0.591697,0.432871 -0.896307,1.034036 -0.277992,0.548678 -0.796972,1.170878 -1.250709,1.499549 -0.70278,0.509106 -0.912423,0.561769 -2.235477,0.561769 -1.3572129,0 -1.517189,-0.04317 -2.2728881,-0.613196 C 7.3958515,53.100406 6.6759757,51.817154 6.6819338,50.860901 6.687641,49.990892 7.2361361,48.830375 7.9667699,48.143972 8.2930817,47.83743 9.1057601,47.414889 9.804655,47.188438 l 1.252779,-0.40594 0.923619,-2.519597 c 1.119799,-3.054836 2.04831,-6.249505 2.580553,-8.878949 0.350799,-1.732962 0.372901,-2.15254 0.190794,-3.623424 -0.354282,-2.862544 -1.65578,-8.334908 -2.139677,-8.99665 -0.118852,-0.162592 -0.591753,-0.380096 -1.050701,-0.483235 -1.8873823,-0.424067 -3.0595558,-1.819409 -3.0595558,-3.642101 0,-1.041379 0.558402,-2.295623 1.3021642,-2.924877 1.3366066,-1.130819 3.7205756,-0.979937 5.0162056,0.317474 0.29451,0.294887 0.706404,0.875421 0.915332,1.290017 0.208924,0.414628 0.401936,0.779213 0.428842,0.810207 0.0259,0.03108 1.810059,0.136984 3.962545,0.235115 3.264306,0.149066 4.092989,0.13295 4.994997,-0.09813 2.579801,-0.66091 5.715038,-2.735461 11.061354,-7.319197 l 1.957631,-1.6783719 -0.06563,-1.4390565 c -0.09555,-2.0965432 0.532076,-3.1886539 2.359141,-4.1055374 2.42679,-1.2178732 5.501915,0.8116137 5.501915,3.6311077 0,0.9217484 -0.58226,1.9296296 -1.640558,2.8398951 l -0.668674,0.575122 0.509936,2.33646 c 0.704364,3.22727 1.900283,7.865598 2.485928,9.641584 0.770381,2.336142 1.934123,3.384916 6.639277,5.983539 3.549343,1.960279 3.609524,1.97536 5.090655,1.274679 1.356546,-0.641771 1.98287,-0.696189 3.207895,-0.278854 1.037526,0.353504 1.914443,1.179162 2.518568,2.371394 0.569143,1.123135 0.569399,1.631981 9.84e-4,2.745132 -0.806267,1.580123 -1.935245,2.388892 -3.54828,2.541901 -0.893754,0.0849 -1.261276,0.02301 -2.051504,-0.342743 -1.210679,-0.560905 -1.210935,-0.560819 -4.938774,1.890089 -1.858897,1.22216 -3.416454,2.428807 -4.58307,3.550531 -1.657197,1.593452 -1.834257,1.839498 -2.844959,3.953334 -1.868047,3.907027 -3.306413,8.195823 -3.500871,10.438667 -0.104165,1.200061 -0.08807,1.259109 0.574841,2.12762 0.616011,0.807013 0.681427,1.00535 0.67697,2.052944 -0.0059,1.398968 -0.394091,2.298011 -1.346225,3.118115 -1.166823,1.005032 -2.806367,1.238335 -4.190259,0.596245 z M 33.415719,37.098871 c 0.190797,-0.09784 0.645019,-0.825947 1.009432,-1.617648 0.869056,-1.888106 2.682373,-7.286365 2.682373,-7.985463 0,-0.301271 -0.17584,-0.832452 -0.39101,-1.180428 -0.363518,-0.588189 -0.460264,-0.632648 -1.376089,-0.632648 -0.779758,0 -1.068138,0.08834 -1.383627,0.424238 -0.637855,0.678951 -2.051976,3.691866 -2.860269,6.093963 -1.12643,3.347536 -0.959032,4.712102 0.431059,5.103343 0.622987,0.175341 1.287775,0.103027 1.888131,-0.205473 z m -9.009454,-2.521039 c 0.543234,-0.258997 0.784534,-0.60174 1.487922,-2.113258 0.895873,-1.925084 1.727921,-4.139498 2.39505,-6.374286 0.519058,-1.738772 0.379714,-2.419163 -0.593487,-2.897421 -0.989743,-0.486399 -1.69569,-0.17497 -2.702335,1.192548 -1.199196,1.629015 -2.706685,5.595876 -3.039815,7.999154 -0.1318,0.951508 0.423321,1.997488 1.21364,2.286504 0.280297,0.102447 0.527726,0.193097 0.550028,0.201153 0.02301,0.0087 0.332382,-0.124318 0.688997,-0.294365 z"
     id="path45" />
</svg>
