<?xml version="1.0" encoding="UTF-8" standalone="no"?>
<svg
   width="16"
   height="16"
   version="1.1"
   id="svg12"
   xmlns="http://www.w3.org/2000/svg"
   xmlns:svg="http://www.w3.org/2000/svg">
  <defs
     id="defs12" />
  <path
     d="M 8,1 C 7.25,2.305 6.346,3.427 5.5,4.5 4.5,5.708 3.635,6.849 3.154,8 2.914,8.57 2.75,9.148 2.75,9.75 c 0,0.602 0.126,1.2 0.322,1.75 C 3.795,13.535 5.718,15 8,15 10.282,15 12.205,13.535 12.928,11.5 13.124,10.95 13.25,10.352 13.25,9.75 13.25,9.148 13.086,8.57 12.846,8 12.365,6.849 11.5,5.708 10.5,4.5 9.654,3.427 8.753,2.305 8,1 Z"
     id="path12"
     style="fill:#8200ff;fill-opacity:1;stroke:none;stroke-opacity:1" />
</svg>
