<?xml version="1.0" encoding="UTF-8" standalone="no"?>
<svg
   width="128"
   height="128"
   version="1.1"
   id="svg6"
   xmlns="http://www.w3.org/2000/svg"
   xmlns:svg="http://www.w3.org/2000/svg">
  <defs
     id="defs6" />
  <rect
     width="124"
     height="124"
     x="2"
     y="2"
     fill="#363d52"
     stroke="#212532"
     stroke-width="4"
     rx="14"
     id="rect1"
     style="fill:#525252;fill-opacity:1;stroke:#2f2f2f;stroke-opacity:1" />
  <g
     fill="#414042"
     transform="matrix(0.101,0,0,0.101,12.322,12.322)"
     id="g6">
    <circle
       cx="307"
       cy="532"
       r="60"
       id="circle5" />
    <circle
       cx="717"
       cy="532"
       r="60"
       id="circle6" />
  </g>
  <path
     style="display:inline;fill:#000000;stroke-width:4.96021"
     d="m 72.242427,121.61921 c -1.47984,-0.32687 -3.284807,-1.34376 -4.723314,-2.66165 l -1.285431,-1.17768 -0.826135,-1.81252 -0.826153,-1.81245 0.09566,-2.58274 0.09566,-2.58272 -5.072159,-5.0222 c -5.538224,-5.483817 -7.75376,-7.292248 -9.514068,-7.766298 l -1.149885,-0.309512 -2.981333,0.183532 c -1.639738,0.101177 -4.059278,0.357618 -5.376806,0.569918 -1.31748,0.212299 -3.5527,0.537083 -4.96715,0.721459 l -2.571663,0.335315 -0.437494,0.917678 c -0.737691,1.546938 -2.178728,2.952108 -3.976361,3.877358 l -1.715335,0.88286 -2.959058,0.0155 -2.95906,0.0155 -1.761961,-0.95548 c -0.969074,-0.52577 -2.251287,-1.48662 -2.849395,-2.13545 l -1.087474,-1.180772 -0.638079,-1.91752 -0.638079,-1.917521 0.134426,-1.865429 0.134426,-1.865432 0.775876,-1.550008 c 1.2961,-2.589184 3.119964,-4.091379 6.307494,-5.194933 l 0.957171,-0.331333 1.384441,-3.648182 c 0.761491,-2.006494 1.560233,-4.282288 1.775061,-5.057266 1.529575,-5.518027 1.911662,-7.006847 2.278117,-8.877234 0.227671,-1.162524 0.412689,-3.001365 0.411205,-4.086365 l -0.0031,-1.972675 -0.691109,-3.240897 c -0.80804,-3.78969 -1.981371,-8.324907 -2.387763,-9.229597 l -0.284713,-0.634063 h -0.605843 c -0.933259,0 -3.436576,-1.555174 -4.687096,-2.911834 L 18.49112,43.618328 17.889398,42.010182 17.287725,40.402029 v -2.079712 -2.079664 l 0.570673,-1.331273 c 0.31398,-0.732175 1.070409,-1.928224 1.681309,-2.657824 l 1.110688,-1.326607 1.770941,-0.81779 1.770942,-0.817786 2.67722,0.02482 2.677272,0.02482 1.409093,0.628061 c 1.65289,0.736688 3.352897,2.286305 4.103829,3.740789 l 0.533321,1.033011 0.781427,0.152265 c 0.429556,0.08382 2.813628,0.23611 5.297402,0.338785 l 4.516014,0.1865 1.683981,-0.348204 c 3.712921,-0.76814 8.813003,-4.078825 16.620268,-10.789038 l 3.66366,-3.14879 0.01551,-2.26046 0.01551,-2.260516 0.921262,-1.794997 c 1.148575,-2.238944 2.47265,-3.509754 4.824128,-4.630506 l 1.831822,-0.8730955 2.395431,-0.00982 2.395414,-0.00982 1.599373,0.7436845 c 0.879637,0.408719 2.159828,1.260233 2.844833,1.891672 l 1.245494,1.148089 0.926882,2.010815 0.926847,2.010821 -0.146853,2.353366 -0.146853,2.353421 -0.772996,1.34704 c -0.425082,0.740854 -1.15771,1.755022 -1.627934,2.25362 l -0.854989,0.906574 1.216831,5.857061 c 1.119618,5.388717 2.72573,11.201977 3.816322,13.812881 0.868881,2.080007 3.397704,3.967365 10.402551,7.763856 l 3.92957,2.129812 1.42497,-0.752066 1.42491,-0.752064 h 2.95906 2.95907 l 1.69093,0.957366 c 0.92999,0.526574 2.11934,1.350913 2.64293,1.831801 l 0.95208,0.874438 0.95022,2.058782 0.95019,2.058783 v 2.03552 2.035518 l -0.94271,1.964744 -0.94267,1.964783 -1.13578,1.024387 c -0.62475,0.563368 -1.75404,1.38666 -2.50961,1.829564 l -1.37375,0.805279 -2.98277,0.102211 -2.98281,0.102212 -1.12062,-0.571711 -1.1206,-0.571711 -0.82839,0.623747 c -0.45585,0.343244 -2.4136,1.624866 -4.351117,2.848505 -3.699667,2.336552 -4.829644,3.226703 -7.997037,6.299848 l -1.937945,1.880307 -1.789886,3.686429 c -1.763049,3.631222 -3.065751,7.209559 -4.989907,13.706868 l -0.978022,3.3024 0.414671,0.34425 c 0.228174,0.18948 0.815363,1.11282 1.304787,2.05208 l 0.889962,1.70781 0.0034,2.53635 0.0034,2.53634 -0.883809,1.86524 -0.883756,1.86528 -1.721096,1.43232 c -2.295581,1.91037 -5.75849,2.72309 -8.770377,2.05832 z m 4.002026,-2.8893 1.493421,-0.31796 1.346534,-1.12382 1.346619,-1.1239 0.611923,-1.30571 0.611992,-1.30577 0.0013,-1.6909 0.0013,-1.69093 -0.595549,-1.12726 c -0.327369,-0.61997 -0.987605,-1.49971 -1.466808,-1.95496 -1.46,-1.38707 1.684916,-12.245554 6.197516,-21.398126 l 1.40805,-2.855881 1.916814,-1.972711 c 2.647667,-2.724938 4.495931,-4.227581 7.783565,-6.328081 1.549956,-0.990363 3.85224,-2.476287 5.11615,-3.302164 2.65668,-1.73597 2.66942,-1.73816 4.49408,-0.765998 l 1.38065,0.73549 2.14214,-0.123067 2.14218,-0.123067 0.9578,-0.657962 c 1.73661,-1.193027 2.57052,-2.099208 3.24527,-3.526409 l 0.66615,-1.4091 0.002,-1.16267 0.002,-1.162623 -0.67572,-1.514643 c -1.07973,-2.420137 -3.29065,-4.057151 -5.89145,-4.362252 l -1.46464,-0.171622 -1.15905,0.312496 c -0.63749,0.171622 -1.62595,0.6293 -2.19663,1.016543 -1.61414,1.095415 -1.57093,1.111033 -10.283398,-3.717027 C 91.427,52.410041 88.095725,49.762631 87.231842,48.125467 86.049966,45.885789 83.001435,34.292104 81.351181,25.761294 l -0.137374,-0.709852 1.159537,-0.93182 c 0.637743,-0.51249 1.470411,-1.424277 1.85042,-2.026197 l 0.690848,-1.094422 0.177085,-1.505123 0.177086,-1.50512 -0.629469,-1.463266 -0.629504,-1.463309 -1.124668,-1.016095 c -0.619277,-0.558816 -1.586957,-1.212271 -2.151083,-1.452052 l -1.025663,-0.436003 -1.550025,0.0048 -1.550009,0.0048 -1.268177,0.575136 c -3.327208,1.508993 -4.795413,4.439923 -4.125645,8.235872 l 0.224693,1.273433 -3.868359,3.34169 C 58.613845,33.331298 52.799681,37.113503 48.652698,37.900391 L 46.906006,38.23173 43.15724,38.059608 c -2.061807,-0.09475 -4.192561,-0.165175 -4.735061,-0.157246 -0.542494,0.0098 -1.842165,-0.06895 -2.888076,-0.172122 l -1.901694,-0.186985 -0.578658,-1.310089 c -1.117134,-2.52936 -2.915605,-3.833594 -5.732605,-4.157197 l -1.439846,-0.165176 -1.595402,0.60123 -1.59545,0.601172 -0.950178,1.186883 c -3.329683,4.15893 -1.03445,10.102941 4.17699,10.81721 l 1.296695,0.177578 0.364579,0.873189 c 1.168918,2.798654 3.19769,11.592893 3.513854,15.231547 l 0.243547,2.803807 -0.532381,2.832528 c -0.292648,1.557889 -0.869374,4.037261 -1.281172,5.50974 -0.411692,1.472531 -0.815459,2.994323 -0.896852,3.381812 -0.08134,0.387403 -0.960296,2.923896 -1.952984,5.636389 -0.99268,2.712475 -1.852085,5.074278 -1.909773,5.248434 -0.05755,0.174104 -0.59056,0.406242 -1.184152,0.515468 -3.537368,0.651429 -5.960922,2.910349 -6.458086,6.019362 l -0.180054,1.125958 0.489078,1.50671 c 0.566106,1.744503 1.45661,2.8045 3.237971,3.854466 l 1.26817,0.747464 2.113647,-0.0248 2.113591,-0.0248 1.195754,-0.633515 c 1.406862,-0.745263 2.40972,-1.86345 3.171903,-3.536474 l 0.550831,-1.209195 1.906556,-0.33185 c 1.048637,-0.182532 2.858758,-0.444421 4.022574,-0.581725 1.163811,-0.137373 2.876921,-0.395332 3.806906,-0.573658 0.929987,-0.178065 3.719954,-0.342241 6.19996,-0.364079 l 4.509066,-0.03964 0.986398,0.563693 c 2.116324,1.209281 4.308177,3.114167 9.973333,8.667513 l 5.887022,5.77079 -0.461812,1.35601 c -1.548371,4.5442 1.474685,8.91468 6.499065,9.39587 0.185997,0.0198 1.010443,-0.11066 1.831838,-0.28571 z M 59.499756,70.367613 C 58.603589,69.811828 58.01378,68.555958 58.102409,67.392392 58.369262,63.892518 62.398056,53.784961 64.36632,51.677919 l 0.774961,-0.829643 h 1.450416 1.450366 l 0.673611,0.726818 c 0.370511,0.399794 0.751899,1.08346 0.847647,1.519312 l 0.174086,0.792539 -0.435009,1.678634 c -0.239068,0.923241 -1.005238,3.251464 -1.70224,5.17384 -0.697001,1.922324 -1.269211,3.598778 -1.27159,3.725408 -0.0017,0.126497 -0.582673,1.427201 -1.28955,2.890216 l -1.285294,2.660001 -0.814363,0.421117 c -1.066409,0.551441 -2.485473,0.523174 -3.439605,-0.06843 z M 45.610687,66.005614 C 44.758521,65.513564 44.36255,65.051423 43.947628,64.06464 l -0.376975,-0.897003 0.528759,-2.425593 c 1.606754,-7.370364 4.967595,-13.827807 7.536526,-14.480571 l 0.670526,-0.170623 1.077303,0.43104 1.077251,0.431041 0.316476,0.958212 0.315958,0.958165 -0.453848,1.623471 c -1.359117,4.86105 -2.803777,8.764386 -4.565826,12.336227 l -1.253044,2.540121 -0.852765,0.489571 c -0.986485,0.566157 -1.568167,0.602371 -2.357139,0.146819 z"
     id="path36" />
  <path
     style="font-variation-settings:'wght' 800;display:inline;fill:#ffffff;fill-opacity:1;fill-rule:nonzero;stroke:#ffffff;stroke-width:0.895986;stroke-dasharray:none;stroke-opacity:1;paint-order:normal"
     d="m 71.849405,118.10888 c -1.514002,-0.70246 -3.214845,-2.39989 -3.703477,-3.69594 -0.449884,-1.19379 -0.438474,-3.7385 0.02482,-5.06258 0.366081,-1.05082 0.3626,-1.05653 -3.156758,-4.61558 -4.803273,-4.85762 -10.354773,-9.861074 -12.040999,-10.852282 -1.375663,-0.808654 -1.464947,-0.817376 -6.63735,-0.649081 -4.339184,0.141338 -11.519773,0.971107 -14.710627,1.700254 -0.465262,0.106175 -1.019866,0.746107 -1.544901,1.782301 -0.479155,0.945721 -1.373684,2.018163 -2.155758,2.584669 -1.211333,0.877499 -1.572679,0.968279 -3.853134,0.968279 -2.339332,0 -2.615071,-0.0745 -3.917616,-1.056926 -1.620555,-1.222346 -2.861353,-3.434193 -2.851083,-5.082414 0.0098,-1.499571 0.955239,-3.499877 2.214581,-4.682976 0.562441,-0.528362 1.963196,-1.256681 3.167832,-1.646997 l 2.159327,-0.69969 1.591977,-4.34284 c 1.930118,-5.265411 3.530527,-10.771838 4.447916,-15.304023 0.604648,-2.986984 0.642744,-3.710181 0.328859,-6.24544 -0.610651,-4.933965 -2.853951,-14.366292 -3.68801,-15.50689 -0.204857,-0.280248 -1.019963,-0.655144 -1.811019,-0.832918 -3.253147,-0.730934 -5.273541,-3.135987 -5.273541,-6.277632 0,-1.794951 0.962478,-3.956803 2.244448,-5.041404 2.303815,-1.949112 6.412894,-1.689048 8.64608,0.547208 0.507626,0.508276 1.217579,1.508901 1.577693,2.223511 0.360107,0.714665 0.692789,1.343074 0.739165,1.396496 0.04464,0.05357 3.11987,0.23611 6.829958,0.405252 5.626454,0.256934 7.054791,0.229156 8.609522,-0.16914 4.446619,-1.139164 9.85061,-4.714921 19.065684,-12.615583 l 3.374229,-2.892891 -0.11307,-2.480399 c -0.164779,-3.613665 0.917091,-5.496058 4.066283,-7.076426 4.182886,-2.099162 9.483253,1.398922 9.483253,6.258685 0,1.588751 -1.0036,3.325965 -2.827717,4.894926 l -1.15254,0.991297 0.878948,4.027191 c 1.214056,5.562617 3.275378,13.557375 4.284805,16.618517 1.327866,4.026643 3.333723,5.83434 11.443657,10.313403 6.117748,3.378794 6.221478,3.404788 8.774418,2.197074 2.33817,-1.106175 3.41773,-1.199972 5.52921,-0.480641 1.78832,0.60931 3.29979,2.032438 4.34108,4.087404 0.98099,1.935869 0.98144,2.812931 0.002,4.73159 -1.38969,2.723543 -3.33563,4.117563 -6.11592,4.381296 -1.54049,0.146336 -2.17396,0.03964 -3.53602,-0.590757 -2.08677,-0.966801 -2.08721,-0.966646 -8.512634,3.257814 -3.204038,2.106551 -5.888694,4.186351 -7.899497,6.119798 -2.856399,2.746517 -3.161584,3.170616 -4.903656,6.814076 -3.219826,6.734271 -5.699043,14.126549 -6.03422,17.992389 -0.179533,2.06846 -0.151852,2.17024 0.990828,3.66723 1.061773,1.39099 1.174516,1.73285 1.166846,3.53851 -0.01034,2.41131 -0.679283,3.96092 -2.320402,5.37448 -2.011165,1.7323 -4.837141,2.13443 -7.222455,1.0277 z M 63.38161,70.408945 c 0.328851,-0.168571 1.111776,-1.423631 1.739883,-2.788232 1.497938,-3.254395 4.623412,-12.558992 4.623412,-13.763978 0,-0.51928 -0.303083,-1.434839 -0.673956,-2.034621 -0.626574,-1.013819 -0.793318,-1.09045 -2.371869,-1.09045 -1.344,0 -1.841061,0.152265 -2.384848,0.731229 -1.099435,1.17026 -3.536853,6.363408 -4.930046,10.503733 -1.941547,5.769911 -1.653012,8.121914 0.742988,8.796267 1.073787,0.302221 2.219638,0.177585 3.254436,-0.354155 z M 47.852641,66.063602 c 0.936344,-0.446415 1.352256,-1.037177 2.56464,-3.642474 1.544147,-3.318131 2.978293,-7.13496 4.128178,-10.986906 0.89465,-2.996998 0.654479,-4.16974 -1.022957,-4.99408 -1.705945,-0.838371 -2.922741,-0.301583 -4.657832,2.055511 -2.066963,2.807818 -4.665315,9.645216 -5.239508,13.787576 -0.227174,1.640047 0.729649,3.442929 2.091866,3.941086 0.483128,0.17658 0.909604,0.332827 0.948044,0.346713 0.03966,0.015 0.572905,-0.214278 1.187569,-0.507376 z"
     id="path45" />
</svg>
