<?xml version="1.0" encoding="UTF-8" standalone="no"?>
<svg
   width="14.338494"
   height="14.296073"
   version="1.1"
   id="svg1"
   xmlns="http://www.w3.org/2000/svg"
   xmlns:svg="http://www.w3.org/2000/svg">
  <defs
     id="defs1" />
  <g
     id="g1"
     transform="matrix(0.94070111,0,0,0.94070111,-0.36630136,-0.40418016)">
    <g
       id="g2"
       transform="matrix(0.91225791,0,0,0.91225791,0.70285703,0.70441176)">
      <path
         fill="#e0e0e0"
         d="M 7.4090198,15.778161 5.9414522,14.310586 a 0.73378349,0.73378836 0 0 1 1.03757,-1.037577 l 0.2149989,0.214999 V 7.1877016 h 6.3002649 l -0.215,-0.215 A 0.73393259,0.73393746 0 0 1 14.317591,5.935125 l 1.467567,1.4675766 a 0.73378349,0.73378836 0 0 1 0,1.0375768 L 14.317591,9.9078552 A 0.73393266,0.73393753 0 0 1 13.279286,8.8702784 l 0.215,-0.2150001 H 8.6615876 v 4.8327297 l 0.2157322,-0.214999 a 0.73378349,0.73378836 0 0 1 1.0375694,1.037577 l -1.4675659,1.467575 a 0.73378349,0.73378836 0 0 1 -1.03757,0 z"
         id="path1"
         style="stroke:#e0e0e0;stroke-width:0.734127;stroke-linecap:butt;stroke-linejoin:round;stroke-dasharray:none;stroke-opacity:1" />
      <path
         fill="#e0e0e0"
         d="M 8.4624226,0.26561894 9.905901,1.6948423 A 0.72173893,0.71461165 0 0 1 8.8853621,2.7053033 L 8.6738924,2.4959228 V 8.6315779 H 2.4770419 L 2.6885118,8.8409592 A 0.72188518,0.71475645 0 0 1 1.6672514,9.8514203 L 0.22377284,8.4221966 a 0.72173893,0.71461165 0 0 1 0,-1.0104608 L 1.6672514,5.9825125 A 0.72188518,0.71475645 0 0 1 2.6885118,6.9929734 L 2.4770419,7.2023547 H 7.230415 V 2.4959228 L 7.0182238,2.7053033 A 0.72173893,0.71461165 0 0 1 5.9976848,1.6948423 L 7.4411622,0.26561894 a 0.72173893,0.71461165 0 0 1 1.020539,0 z"
         id="path1-5"
         style="stroke:#e0e0e0;stroke-width:0.718167;stroke-opacity:1" />
    </g>
  </g>
</svg>
