<?xml version="1.0" encoding="UTF-8" standalone="no"?>
<svg
   width="16"
   height="16"
   version="1.1"
   id="svg1"
   sodipodi:docname="History.svg"
   inkscape:export-filename="Home.png"
   inkscape:export-xdpi="96"
   inkscape:export-ydpi="96"
   xmlns:inkscape="http://www.inkscape.org/namespaces/inkscape"
   xmlns:sodipodi="http://sodipodi.sourceforge.net/DTD/sodipodi-0.dtd"
   xmlns="http://www.w3.org/2000/svg"
   xmlns:svg="http://www.w3.org/2000/svg">
  <defs
     id="defs1" />
  <sodipodi:namedview
     id="namedview1"
     pagecolor="#505050"
     bordercolor="#eeeeee"
     borderopacity="1"
     inkscape:showpageshadow="0"
     inkscape:pageopacity="0"
     inkscape:pagecheckerboard="0"
     inkscape:deskcolor="#505050">
    <inkscape:page
       x="0"
       y="0"
       width="16"
       height="16"
       id="page2"
       margin="0"
       bleed="0" />
  </sodipodi:namedview>
  <g
     id="layer1"
     transform="matrix(0.11876492,0,0,0.11876492,-4.5330025,-12.566304)">
    <g
       id="g20">
      <path
         id="rect16"
         style="fill:#e0e0e0;fill-opacity:1;stroke-width:0.264583"
         d="m 66.11121,168.36802 c -5.305597,0 -9.576676,4.27108 -9.576676,9.57667 v 44.48618 c 0,5.3056 4.271079,9.57719 9.576676,9.57719 h 25.30905 v -31.06219 c 0,-6.15745 4.957109,-11.11456 11.11457,-11.11456 h 8.79067 c 6.15746,0 11.11457,4.95711 11.11457,11.11456 v 31.06219 h 23.37584 c 5.30559,0 9.57667,-4.27159 9.57667,-9.57719 v -44.48618 c 0,-5.30559 -4.27108,-9.57667 -9.57667,-9.57667 z" />
      <path
         style="fill:#e0e0e0;fill-opacity:1;stroke-width:0.267623"
         d="m 47.501727,172.52561 c 12.495608,-12.56799 40.855222,-41.03057 53.605893,-53.32744 3.44399,-3.32141 9.32073,-3.2811 12.71451,0.0913 12.47081,12.39212 40.04742,40.92803 52.25691,53.59025 3.32556,3.44887 2.1346,6.23429 -2.65645,6.2179 L 50.063083,178.70994 c -4.791054,-0.0164 -5.939366,-2.78675 -2.561356,-6.18433 z"
         id="path19" />
    </g>
    <rect
       style="fill:#e0e0e0;fill-opacity:1;stroke-width:0.300046"
       id="rect19"
       width="20.889063"
       height="56.486088"
       x="130.45978"
       y="119.27744"
       ry="4.8353362" />
  </g>
</svg>
