<?xml version="1.0" encoding="UTF-8" standalone="no"?>
<svg
   width="1024"
   height="414"
   version="1.1"
   id="svg8"
   xmlns="http://www.w3.org/2000/svg"
   xmlns:svg="http://www.w3.org/2000/svg">
  <defs
     id="defs8" />
  <path
     style="font-size:17.1207px;font-family:Cantarell;-inkscape-font-specification:'Cantarell, @wght=800';font-variation-settings:'wght' 800;fill:#ffffff;fill-opacity:1;stroke:#ffffff;stroke-width:2.74186;stroke-linecap:square;stroke-linejoin:round;stroke-miterlimit:0;stroke-dasharray:none;stroke-opacity:1;paint-order:normal"
     d="m 387.1396,264.2057 h 24.13253 v -79.86833 l -1.32441,1.664 43.70337,78.20433 h 28.54693 V 148.72949 h -24.42678 l -0.29415,81.19939 2.35444,-1.66389 -43.55617,-79.5355 h -29.13559 z m 115.95359,0 h 73.28036 v -25.29161 h -47.8235 v -20.63264 h 43.70333 v -25.29162 h -43.70333 v -18.96874 h 47.8235 v -25.2916 h -73.28036 z m 91.08536,0 h 40.61316 c 25.75117,0 42.82043,-15.14166 42.82043,-37.77106 0,-20.46621 -13.09627,-32.77923 -35.31575,-32.77923 h -31.48997 v 21.96371 h 25.89825 c 9.1233,0 14.42068,5.32456 14.42068,13.64419 0,8.15319 -4.41448,12.31301 -12.94922,12.31301 h -18.98224 v -70.21745 h 10.0062 c 8.53463,0 14.12625,4.65897 14.12625,11.64743 0,6.32289 -4.56155,11.64744 -12.80195,14.47608 l 19.71805,4.49266 c 11.3305,-3.32791 18.68791,-13.8106 18.68791,-26.12363 0,-17.80399 -13.09628,-27.12192 -38.25878,-27.12192 h -36.49302 z m 139.93893,1.66391 c 27.81118,0 45.76344,-19.46789 45.76344,-49.41847 v -67.72165 h -25.16253 v 71.04944 c 0,13.31144 -6.62177,21.13181 -17.80505,21.13181 -13.0963,0 -20.74802,-9.15153 -20.74802,-24.4596 v -67.72165 h -25.45688 v 69.38554 c 0,29.78416 16.33366,47.75458 43.40904,47.75458 z m 64.5985,-1.66391 h 67.68855 v -25.45804 h -42.23172 v -90.01817 h -25.45683 z m 80.7036,0 h 27.22258 l 27.0754,-103.1632 h -7.06319 l 28.39993,103.1632 h 28.1055 L 948.28535,148.72949 h -32.51994 z m 28.39981,-23.79413 h 46.79341 l -5.29737,-25.9572 H 912.9696 Z"
     id="text7"
     aria-label="NEBULA" />
  <path
     style="fill:#000000;stroke-width:15.6538"
     d="m 209.16456,389.95286 c -4.67019,-1.03159 -10.36644,-4.24078 -14.90624,-8.40001 l -4.05669,-3.7167 -2.60715,-5.7199 -2.6073,-5.71993 0.30211,-8.1508 0.30214,-8.15083 -16.00717,-15.84951 c -17.478,-17.3063 -24.46996,-23.01369 -30.02536,-24.50955 l -3.62886,-0.97683 -9.40876,0.57919 c -5.17484,0.31935 -12.81064,1.12866 -16.96862,1.79864 -4.15781,0.66999 -11.211935,1.695 -15.675785,2.27685 l -8.1159,1.05822 -1.38066,2.89611 c -2.32806,4.88196 -6.87579,9.31656 -12.5489,12.23647 l -5.41343,2.78621 -9.338451,0.0471 -9.338475,0.0469 -5.56058,-3.0154 c -3.05828,-1.65885 -7.10481,-4.69114 -8.99235,-6.73884 l -3.43194,-3.72311 -2.01371,-6.05148 -2.01372,-6.05146 0.42424,-5.88711 0.42422,-5.8871 2.44855,-4.89166 c 4.09036,-8.17117 9.84629,-12.91193 19.90576,-16.39462 l 3.020735,-1.04567 4.369133,-11.51326 c 2.403192,-6.33228 4.923918,-13.51443 5.601899,-15.96018 4.827179,-17.41428 6.032999,-22.1128 7.189489,-28.01555 0.71852,-3.66881 1.30241,-9.47199 1.29772,-12.89613 l -0.009,-6.22553 -2.18106,-10.22792 c -2.55032,-11.9597 -6.253237,-26.27233 -7.535769,-29.12744 L 59.786155,156.831 h -1.911966 c -2.945272,0 -10.84547,-4.90796 -14.79195,-9.18944 l -3.54981,-3.85101 -1.89899,-5.07513 -1.89879,-5.07514 v -6.56335 -6.56319 l 1.80095,-4.20134 c 0.99091,-2.31066 3.37811,-6.08528 5.30603,-8.3878 l 3.50522,-4.18663 5.58889,-2.58085 5.588906,-2.580854 8.449,0.07827 8.44918,0.07828 4.44694,1.982094 c 5.21634,2.32491 10.58139,7.21533 12.95123,11.80551 l 1.68309,3.26008 2.4661,0.48057 c 1.35565,0.26455 8.879515,0.74512 16.718005,1.06916 l 14.25206,0.58858 5.31448,-1.0989 c 11.71751,-2.42414 27.8128,-12.8723 52.45164,-34.049002 l 11.56212,-9.937223 0.0469,-7.133776 0.0471,-7.13393 2.90737,-5.664818 c 3.62514,-7.065838 7.80377,-11.076354 15.2248,-14.613342 l 5.78096,-2.755393 7.55972,-0.03131 7.55971,-0.03132 5.04743,2.346984 c 2.77606,1.289874 6.81617,3.977174 8.97797,5.969909 l 3.93066,3.623241 2.92509,6.345917 2.92508,6.345916 -0.46335,7.426972 -0.46337,7.427129 -2.43949,4.251116 c -1.34152,2.33806 -3.65361,5.538648 -5.13759,7.112174 l -2.69825,2.861054 3.84019,18.484232 c 3.53341,17.00619 8.60211,35.3522 12.04393,43.59192 2.74208,6.56428 10.72274,12.52057 32.82924,24.50188 l 12.40131,6.72145 4.49705,-2.37343 4.49688,-2.37344 h 9.33845 9.33848 l 5.33639,3.02135 c 2.93494,1.66181 6.68842,4.26333 8.34084,5.78097 l 3.00461,2.75962 2.9988,6.49729 2.99866,6.49729 v 6.42386 6.4239 l -2.97502,6.20047 -2.97501,6.20065 -3.58443,3.23268 c -1.97159,1.77814 -5.53551,4.37636 -7.92005,5.7741 l -4.33535,2.54137 -9.41329,0.32249 -9.41344,0.32246 -3.53652,-1.80426 -3.5365,-1.80426 -2.61436,1.96847 c -1.4386,1.08326 -7.61703,5.1279 -13.73157,8.98954 -11.67575,7.37391 -15.24185,10.18314 -25.23777,19.88165 l -6.11596,5.93407 -5.64869,11.63393 c -5.564,11.45972 -9.67517,22.75257 -15.74763,43.25726 l -3.08645,10.42217 1.30866,1.08639 c 0.72008,0.59798 2.57317,3.51193 4.11775,6.47615 l 2.8086,5.38963 0.009,8.00444 0.009,8.00443 -2.7892,5.88647 -2.78906,5.88664 -5.43155,4.5202 c -7.24463,6.02894 -18.17321,8.59382 -27.67837,6.4959 z m 12.63,-9.11837 4.71305,-1.00341 4.24956,-3.54669 4.24971,-3.54684 1.93121,-4.12089 1.93137,-4.12072 0.004,-5.33625 0.004,-5.3364 -1.87939,-3.55749 c -1.03316,-1.95657 -3.11684,-4.7331 -4.62917,-6.16981 -4.60754,-4.37729 5.31747,-38.64546 19.55871,-67.52997 l 4.44367,-9.01286 6.04927,-6.22569 c 8.35572,-8.5996 14.18865,-13.34178 24.56402,-19.97088 4.89151,-3.12529 12.15726,-7.81486 16.14602,-10.42108 8.38418,-5.47853 8.42443,-5.48543 14.18285,-2.41743 l 4.3571,2.32116 6.76042,-0.38822 6.76045,-0.3882 3.02274,-2.0765 c 5.48058,-3.76506 8.11231,-6.62486 10.2417,-11.12894 l 2.1023,-4.44694 0.009,-3.66927 0.009,-3.66928 -2.13252,-4.7799 c -3.40725,-7.63767 -10.38467,-12.80391 -18.59246,-13.76678 l -4.62225,-0.54162 -3.65783,0.98619 c -2.01184,0.54162 -5.13134,1.986 -6.93233,3.2081 -5.09408,3.457 -4.95772,3.50631 -32.45325,-11.73053 -12.47093,-6.91071 -22.98407,-15.26564 -25.71033,-20.43235 -3.72986,-7.06819 -13.35071,-43.65657 -18.55874,-70.578853 l -0.43362,-2.240225 3.6594,-2.940732 c 2.01263,-1.617356 4.64044,-4.494848 5.83968,-6.394443 l 2.18027,-3.453867 0.55885,-4.750006 0.55883,-4.750005 -1.98647,-4.617887 -1.98664,-4.618046 -3.54934,-3.20669 c -1.9522,-1.763565 -5.00611,-3.825802 -6.78643,-4.58251 l -3.23689,-1.375975 -4.89169,0.01567 -4.89165,0.01567 -4.00223,1.815064 c -10.50029,4.762213 -15.13383,14.01192 -13.0201,25.991504 l 0.70913,4.018812 -12.20814,10.546002 c -28.26723,24.418577 -46.61606,36.354807 -59.70347,38.838127 l -5.51234,1.04568 -11.83073,-0.54319 c -6.50683,-0.29899 -13.23124,-0.52127 -14.94331,-0.49623 -1.71206,0.0313 -5.813705,-0.21915 -9.114465,-0.54318 l -6.00153,-0.59015 -1.82618,-4.1345 c -3.52556,-7.98237 -9.20134,-12.09839 -18.09147,-13.11965 l -4.543997,-0.52127 -5.034922,1.8974 -5.035052,1.89724 -2.998658,3.74566 c -10.508127,13.12513 -3.264597,31.88377 13.182114,34.13793 l 4.092235,0.5604 1.15056,2.75571 c 3.68899,8.83222 10.09157,36.58587 11.08933,48.06907 l 0.76862,8.8485 -1.68014,8.93914 c -0.92356,4.91641 -2.74364,12.74114 -4.04323,17.38815 -1.29926,4.64714 -2.57349,9.44977 -2.83036,10.67265 -0.25674,1.22255 -3.03061,9.22747 -6.16341,17.78778 -3.132801,8.56031 -5.844975,16.01389 -6.027049,16.5635 -0.181524,0.54944 -1.863747,1.28206 -3.737025,1.62674 -11.163562,2.05582 -18.812032,9.18474 -20.381002,18.99642 l -0.56826,3.55344 1.54349,4.75502 c 1.78656,5.50546 4.59691,8.85069 10.21868,12.16429 l 4.002203,2.35889 6.67042,-0.0784 6.670288,-0.0784 3.773665,-1.99915 c 4.43989,-2.35201 7.6048,-5.88085 10.01016,-11.16076 l 1.73837,-3.81608 6.01686,-1.04724 c 3.3094,-0.57606 9.02196,-1.4026 12.69481,-1.8359 3.672885,-0.4336 9.079255,-1.2476 12.014185,-1.81036 2.93494,-0.56196 11.73977,-1.08013 19.56639,-1.149 l 14.23013,-0.12507 3.11292,1.77876 c 6.67888,3.81656 13.59618,9.82811 31.47475,27.35386 l 18.57877,18.21201 -1.45738,4.27945 c -4.88649,14.34096 4.65391,28.13375 20.51032,29.65232 0.58701,0.0627 3.18883,-0.34907 5.78111,-0.90165 z M 168.95011,228.20846 c -2.82816,-1.75403 -4.68959,-5.71742 -4.40983,-9.38949 0.84217,-11.04522 13.55654,-42.94355 19.76814,-49.59315 l 2.44576,-2.61826 h 4.57735 4.57718 l 2.12579,2.29376 c 1.16935,1.2617 2.37298,3.41927 2.6751,4.79477 l 0.54945,2.50118 -1.37285,5.29757 c -0.7545,2.91366 -3.17241,10.26126 -5.37207,16.32807 -2.19969,6.06665 -4.00553,11.35736 -4.01305,11.75684 -0.007,0.39916 -1.83885,4.50424 -4.06967,9.12134 l -4.05623,8.3947 -2.57005,1.329 c -3.36544,1.74023 -7.84383,1.65102 -10.85502,-0.21601 z m -43.83235,-13.76599 c -2.68935,-1.55287 -3.93897,-3.01134 -5.24843,-6.12552 l -1.1897,-2.83086 1.66871,-7.65488 c 5.07075,-23.26007 15.67718,-43.63904 23.78446,-45.69908 l 2.11611,-0.53693 3.39984,1.36032 3.3997,1.36032 0.99871,3.02401 0.99717,3.02385 -1.43232,5.12351 c -4.28917,15.34094 -8.84834,27.65942 -14.40923,38.93177 l -3.95449,8.01635 -2.69119,1.54503 c -3.11324,1.78672 -4.94897,1.901 -7.43888,0.46335 z"
     id="path36" />
  <path
     style="font-variation-settings:'wght' 800;fill:#ffffff;fill-opacity:1;stroke:#ffffff;stroke-width:0.306536;stroke-linecap:square;stroke-linejoin:round;stroke-miterlimit:0;stroke-dasharray:none;stroke-opacity:1;paint-order:normal"
     d="m 207.9243,378.87463 c -4.77802,-2.21705 -10.14573,-7.5738 -11.68778,-11.66399 -1.41981,-3.76742 -1.38382,-11.79832 0.0784,-15.97696 1.15526,-3.31628 1.14428,-3.33443 -9.96242,-14.56622 -15.15857,-15.33013 -32.67852,-31.12051 -38.00005,-34.2486 -4.34144,-2.55207 -4.62321,-2.57963 -20.94675,-2.04864 -13.69398,0.44615 -36.355135,3.06486 -46.425105,5.36599 -1.46832,0.335 -3.21859,2.35465 -4.87555,5.62475 -1.51217,2.98455 -4.33519,6.36907 -6.80331,8.15691 -3.82285,2.76933 -4.96322,3.05579 -12.160085,3.05579 -7.382657,0 -8.252861,-0.2348 -12.363561,-3.33554 -5.11427,-3.85757 -9.0301,-10.83795 -8.99768,-16.03956 0.0313,-4.73247 3.01461,-11.0452 6.98897,-14.77896 1.775,-1.66743 6.19565,-3.96589 9.997344,-5.19771 l 6.814579,-2.20814 5.024123,-13.70558 c 6.09121,-16.61702 11.14193,-33.99467 14.03712,-48.29775 1.90819,-9.42661 2.02841,-11.70896 1.03785,-19.70994 -1.92731,-15.57105 -9.00693,-45.33842 -11.63912,-48.93802 -0.64651,-0.88445 -3.21889,-2.06756 -5.715378,-2.6286 -10.266588,-2.30675 -16.642708,-9.89684 -16.642708,-19.81152 0,-5.66466 3.03748,-12.48723 7.083219,-15.91011 7.270592,-6.15118 20.238397,-5.33045 27.286067,1.72694 1.60202,1.60405 3.84255,4.7619 4.97902,7.01715 1.13646,2.25541 2.18639,4.2386 2.33273,4.40719 0.1408,0.16906 9.84599,0.74512 21.554585,1.27892 17.7565,0.81087 22.26417,0.72321 27.17071,-0.5338 14.03307,-3.59506 31.08748,-14.87977 60.16921,-39.813394 l 10.64867,-9.129641 -0.3569,-7.827866 c -0.5197,-11.404302 2.89423,-17.34494 12.83273,-22.332415 13.20073,-6.624714 29.92814,4.414856 29.92814,19.751721 0,5.01393 -3.16725,10.49638 -8.92396,15.447849 l -3.63733,3.128425 2.77387,12.709364 c 3.83144,17.555027 10.33671,42.785587 13.52242,52.446207 4.19052,12.70765 10.5208,18.41254 36.11485,32.54797 19.30698,10.66309 19.63431,10.74512 27.69103,6.93372 7.37907,-3.49097 10.78598,-3.78698 17.44966,-1.51686 5.64368,1.92292 10.41374,6.41417 13.69995,12.89924 3.09586,6.10955 3.09728,8.8773 0.007,14.93254 -4.38576,8.59522 -10.52692,12.99459 -19.30121,13.82689 -4.86162,0.46179 -6.86079,0.12507 -11.15933,-1.86437 -6.58558,-3.05111 -6.587,-3.05064 -26.86484,10.28129 -10.1116,6.64804 -18.58409,13.2117 -24.93,19.31343 -9.01444,8.66752 -9.97761,10.00609 -15.4754,21.50446 -10.1614,21.25246 -17.9855,44.58189 -19.04322,56.78203 -0.56669,6.52782 -0.47901,6.84902 3.12685,11.57336 3.35086,4.38981 3.70667,5.46868 3.68242,11.16716 -0.0313,7.6098 -2.14364,12.50021 -7.32289,16.96126 -6.34699,5.46694 -15.26548,6.73601 -22.79326,3.24316 z M 181.20082,228.33886 c 1.03785,-0.5338 3.50867,-4.49281 5.49092,-8.79934 4.72729,-10.27051 14.59095,-39.6348 14.59095,-43.43759 0,-1.6388 -0.95644,-4.52819 -2.12688,-6.42105 -1.97742,-3.19949 -2.5037,-3.44134 -7.48537,-3.44134 -4.24157,0 -5.81026,0.48057 -7.52638,2.30769 -3.46968,3.69321 -11.16198,20.08202 -15.55867,33.14861 -6.02595,17.90801 -5.37728,25.5867 2.34479,27.75992 3.38889,0.95331 7.00494,0.56041 10.27064,-1.11612 z m -49.00768,-13.71341 c 2.95499,-1.40884 4.26756,-3.27337 8.09368,-11.49525 4.87319,-10.47165 9.39919,-22.51714 13.02807,-34.67345 2.82348,-9.45822 2.06552,-13.15926 -3.2283,-15.76077 -5.38383,-2.64582 -9.22387,-0.95176 -14.69958,6.48695 -6.52314,8.86118 -14.72326,30.43924 -16.53533,43.51209 -0.71695,5.17579 2.30268,10.86551 6.60169,12.43762 1.52469,0.55729 2.87061,1.05038 2.99193,1.0942 0.12534,0.0471 1.80801,-0.67626 3.74784,-1.60124 z"
     id="path45" />
</svg>
