<?xml version="1.0" encoding="UTF-8" standalone="no"?>
<svg
   width="100"
   height="24"
   stroke-linejoin="round"
   version="1.1"
   id="svg7"
   xml:space="preserve"
   xmlns="http://www.w3.org/2000/svg"
   xmlns:svg="http://www.w3.org/2000/svg"><defs
     id="defs7"><linearGradient
       id="swatch10"><stop
         style="stop-color:#ffffff;stop-opacity:1;"
         offset="0"
         id="stop10" /></linearGradient></defs><path
     style="font-size:17.1207px;font-family:Cantarell;-inkscape-font-specification:'Cantarell, @wght=800';font-variation-settings:'wght' 800;opacity:1;fill:#ffffff;fill-opacity:1;stroke:#ffffff;stroke-width:0.3;stroke-linecap:square;stroke-linejoin:round;stroke-miterlimit:0;stroke-dasharray:none;stroke-opacity:1;paint-order:normal"
     d="m 29.185223,17.570149 h 2.764763 V 9.2243049 l -0.151724,0.1738718 5.006918,8.1719723 h 3.270513 V 5.5034496 h -2.79848 l -0.03372,8.4849414 0.269733,-0.173872 -4.99006,-8.3110694 H 29.18522 Z m 13.284351,0 h 8.395439 v -2.642851 h -5.478951 v -2.15601 h 5.006918 v -2.64285 H 45.386062 V 8.1463001 h 5.478951 V 5.5034496 h -8.395439 z m 10.435285,0 h 4.652894 c 2.950204,0 4.905768,-1.582233 4.905768,-3.946889 0,-2.138622 -1.500389,-3.425273 -4.045994,-3.425273 h -3.607679 v 2.295106 h 2.967063 c 1.045215,0 1.652114,0.556391 1.652114,1.425749 0,0.851971 -0.505749,1.286651 -1.483531,1.286651 H 55.770772 V 7.8681053 h 1.146365 c 0.977782,0 1.618398,0.486841 1.618398,1.2171022 0,0.6607126 -0.522608,1.2171025 -1.466673,1.5126845 l 2.259014,0.469454 c 1.29809,-0.347744 2.141005,-1.4431361 2.141005,-2.7297869 0,-1.8604277 -1.50039,-2.8341095 -4.38316,-2.8341095 h -4.180862 z m 16.032256,0.173871 c 3.18622,0 5.242934,-2.034299 5.242934,-5.16399 V 5.5034496 h -2.882771 v 7.4243234 c 0,1.390974 -0.758624,2.208171 -2.039856,2.208171 -1.500389,0 -2.377022,-0.956295 -2.377022,-2.555914 V 5.5034496 h -2.916487 v 7.2504524 c 0,3.112303 1.871272,4.990118 4.973202,4.990118 z m 7.400787,-0.173871 h 7.754823 V 14.909911 H 79.254389 V 5.5034496 h -2.916487 z m 9.245893,0 h 3.118788 L 91.804512,6.7901005 h -0.809199 l 3.253654,10.7800485 h 3.219937 L 93.473485,5.5034496 h -3.725687 z m 3.253654,-2.486366 h 5.360943 l -0.606899,-2.7124 H 89.42749 Z"
     id="text7"
     aria-label="NEBULA" /><path
     style="fill:#000000"
     d="m 16.104031,23.364365 c -0.298343,-0.06585 -0.662233,-0.270906 -0.952238,-0.5366 l -0.259155,-0.23743 -0.166552,-0.365402 -0.166552,-0.365401 0.01933,-0.52069 0.01933,-0.520691 -1.022569,-1.012505 c -1.11654,-1.105552 -1.563195,-1.470151 -1.918089,-1.565714 l -0.231811,-0.06242 -0.601055,0.03703 c -0.33058,0.02037 -0.818375,0.07207 -1.0839876,0.114902 -0.2656131,0.04283 -0.7162429,0.10828 -1.0013995,0.145446 l -0.5184666,0.06758 -0.088226,0.185012 c -0.1487175,0.311864 -0.4392436,0.595154 -0.8016494,0.781684 l -0.3458166,0.177992 -0.5965641,0.0028 -0.5965642,0.0028 -0.3552167,-0.19263 C 5.241408,19.39416 4.9829056,19.200449 4.8623275,19.069637 L 4.6430945,18.831797 4.5144497,18.44522 4.385805,18.058642 4.4129123,17.682561 4.4400197,17.30648 4.5964413,16.993994 c 0.2612959,-0.521995 0.6290031,-0.824845 1.2716141,-1.047322 l 0.1929704,-0.06681 0.279116,-0.735491 c 0.1535138,-0.40452 0.3145511,-0.863326 0.3578608,-1.019569 0.308369,-1.112465 0.3853951,-1.412616 0.4592783,-1.789692 0.045921,-0.234365 0.083228,-0.605087 0.082905,-0.823827 l -5.87e-4,-0.397707 -0.1393296,-0.65338 C 6.9373486,9.6961863 6.7007964,8.781867 6.6188668,8.5994837 L 6.5614411,8.4716485 H 6.4393038 c -0.1881534,0 -0.6928355,-0.313527 -0.9449471,-0.5870359 L 5.2675867,7.6385961 5.1462848,7.3143877 5.0249829,6.9901793 V 6.5709037 6.151628 L 5.1400271,5.8832407 C 5.2033014,5.7356276 5.3558346,5.4945026 5.4789897,5.3474074 L 5.7029081,5.0799615 6.059937,4.9150929 6.4169659,4.7502242 l 0.5397485,0.00464 0.5397485,0.00464 0.2840782,0.1266157 C 8.1137681,5.0346415 8.4564965,5.347052 8.6078887,5.64028 l 0.1075239,0.2082603 0.1575362,0.030736 c 0.086645,0.016905 0.5672367,0.04764 1.0679818,0.068301 l 0.9104454,0.037565 0.339499,-0.070235 c 0.748542,-0.1548579 1.776742,-0.8223107 3.350726,-2.175113 l 0.738604,-0.634812 0.0032,-0.455727 0.0032,-0.455727 0.185738,-0.3618802 c 0.23158,-0.451382 0.498518,-0.7075751 0.972582,-0.93352715 l 0.369302,-0.17601947 0.482933,-0.001664 0.482932,-0.001664 0.322437,0.14992263 c 0.177341,0.0824574 0.435432,0.25407699 0.573536,0.38137679 l 0.251098,0.2314541 0.186857,0.4053922 0.186857,0.4053923 -0.0296,0.474452 -0.0296,0.474452 -0.155837,0.2715711 C 19.00013,3.6621507 18.852437,3.8666052 18.757636,3.9671299 L 18.58527,4.149902 18.830594,5.3307052 c 0.225711,1.0863974 0.549514,2.258379 0.769389,2.784741 0.175169,0.41934 0.684983,0.7998389 2.097195,1.5652361 l 0.792225,0.4293737 0.287272,-0.1516201 0.287271,-0.1516206 h 0.596564 0.596565 l 0.340893,0.1930162 c 0.187492,0.1061585 0.427267,0.2723445 0.532833,0.3693015 l 0.191939,0.176285 0.191566,0.415061 0.191567,0.415061 v 0.410369 0.410369 l -0.19005,0.396106 -0.19005,0.396107 -0.228987,0.206514 c -0.125943,0.113583 -0.353617,0.279569 -0.505942,0.368858 l -0.276954,0.162343 -0.601344,0.02061 -0.601343,0.02061 -0.225922,-0.115257 -0.225922,-0.115256 -0.167008,0.125746 c -0.09185,0.06916 -0.486596,0.327583 -0.877203,0.574273 -0.745872,0.471059 -0.973676,0.650517 -1.612236,1.27008 l -0.390699,0.379075 -0.36085,0.743207 c -0.35544,0.732065 -0.618069,1.453478 -1.005993,2.763361 l -0.197174,0.665787 0.08364,0.06942 c 0.046,0.03818 0.164379,0.22435 0.263057,0.413711 l 0.179413,0.344293 6.01e-4,0.511341 6.01e-4,0.511341 -0.178174,0.376044 -0.178174,0.376045 -0.346982,0.288761 c -0.462796,0.385142 -1.160934,0.548989 -1.76815,0.414968 z m 0.806826,-0.582491 0.301079,-0.06413 0.271475,-0.226578 0.271475,-0.226578 0.123374,-0.263243 0.123375,-0.263244 2.93e-4,-0.340894 2.92e-4,-0.340894 -0.120064,-0.227262 c -0.06604,-0.124995 -0.199107,-0.302356 -0.295715,-0.394136 -0.294342,-0.279633 0.339692,-2.468757 1.249448,-4.313958 l 0.283872,-0.575761 0.386436,-0.397709 c 0.533788,-0.549359 0.906401,-0.852296 1.569202,-1.275772 0.312486,-0.199653 0.776633,-0.49923 1.031438,-0.665726 0.535606,-0.349978 0.538173,-0.350416 0.906035,-0.154433 l 0.278337,0.148287 0.431872,-0.02477 0.431873,-0.02477 0.193099,-0.132656 c 0.350109,-0.24052 0.51823,-0.423208 0.654256,-0.71094 l 0.134298,-0.284078 5.55e-4,-0.234397 5.55e-4,-0.234397 -0.13623,-0.305352 c -0.217678,-0.48791 -0.663404,-0.817944 -1.187739,-0.87945 l -0.295277,-0.03464 -0.233672,0.06299 c -0.12852,0.03465 -0.3278,0.126869 -0.442844,0.20494 -0.325422,0.220837 -0.316712,0.223985 -2.073189,-0.74937 C 19.972095,9.4114788 19.3005,8.8777533 19.126336,8.5476948 18.88807,8.0961567 18.273473,5.7588215 17.940774,4.038966 L 17.913092,3.8958642 18.146858,3.7080046 C 18.275429,3.6046818 18.443301,3.420858 18.519906,3.2995074 l 0.139283,-0.2206377 0.03566,-0.303441 0.03566,-0.3034411 L 18.60361,2.1769859 18.476703,1.8819841 18.249959,1.6771338 C 18.125249,1.5644662 17.930161,1.4327298 17.81643,1.3843863 l -0.206784,-0.087897 -0.312486,0.0012 -0.312486,0.0012 -0.255671,0.115952 c -0.670786,0.3042161 -0.966788,0.895107 -0.831757,1.660388 l 0.0453,0.2567326 -0.779879,0.6736952 C 13.35689,5.5655689 12.184734,6.3280765 11.34868,6.4867213 l -0.35214,0.06682 -0.755765,-0.034691 C 9.825104,6.4997665 9.3955254,6.4855095 9.2861553,6.4871643 9.1767852,6.4888191 8.914774,6.4732086 8.703908,6.4524743 L 8.3205155,6.4147756 8.2038609,6.1506563 C 7.9786407,5.6407317 7.6160573,5.3777944 7.0481403,5.3125536 L 6.7578597,5.2792069 6.436216,5.4004153 6.1145723,5.5216236 5.9230096,5.7608959 C 5.2517311,6.5993595 5.714461,7.7976958 6.7651147,7.9417039 l 0.2614112,0.03583 0.073525,0.1760375 C 7.3357056,8.7177889 7.7447242,10.490754 7.808464,11.224317 l 0.049116,0.565266 -0.1073319,0.571046 c -0.059032,0.314076 -0.1752643,0.813934 -0.2582929,1.110796 -0.083029,0.296861 -0.1643928,0.603666 -0.1808095,0.681787 -0.016417,0.07812 -0.193592,0.589463 -0.3937231,1.136313 -0.200131,0.546851 -0.3733891,1.023004 -0.3850181,1.058119 -0.011629,0.03512 -0.119061,0.08188 -0.2387381,0.103917 -0.7131435,0.131331 -1.2017448,0.586742 -1.3019722,1.213529 l -0.036299,0.226999 0.098581,0.30376 c 0.1141385,0.351697 0.2936627,0.565402 0.6527934,0.77708 l 0.2556703,0.150696 0.4261173,-0.0052 0.4261172,-0.0052 0.2410682,-0.127711 C 7.3393683,18.835259 7.5415519,18.609833 7.695207,18.272539 L 7.8062609,18.02876 8.1906341,17.96182 c 0.2114053,-0.03682 0.5763401,-0.08959 0.8109663,-0.117278 0.2346262,-0.02769 0.5799953,-0.07973 0.7674869,-0.115648 0.1874916,-0.03592 0.7499667,-0.06897 1.2499437,-0.07344 l 0.90905,-0.0081 0.198855,0.113631 c 0.426665,0.243809 0.868552,0.627839 2.010677,1.747414 l 1.18685,1.163419 -0.09315,0.273378 c -0.312158,0.916132 0.297301,1.797245 1.310241,1.894255 0.03752,0.0036 0.203708,-0.02232 0.369301,-0.0576 z M 13.53505,13.031805 c -0.18067,-0.112046 -0.299581,-0.365234 -0.281707,-0.599815 0.05377,-0.705591 0.866015,-2.7433198 1.262826,-3.1681078 l 0.156246,-0.1672617 h 0.292404 0.292404 l 0.135797,0.1465284 c 0.07469,0.080591 0.15159,0.2184283 0.170891,0.3063059 l 0.03509,0.1597776 -0.08769,0.3384206 c -0.04823,0.186131 -0.202662,0.655511 -0.343179,1.043065 -0.140517,0.387555 -0.255878,0.72553 -0.256357,0.751057 -4.8e-4,0.02553 -0.117474,0.287733 -0.259987,0.582682 l -0.259115,0.536271 -0.164181,0.0849 c -0.214991,0.111176 -0.501079,0.105472 -0.693442,-0.01382 z m -2.800096,-0.879392 c -0.171807,-0.0992 -0.251637,-0.192372 -0.335285,-0.391312 l -0.07604,-0.180841 0.106604,-0.489012 C 10.754156,9.6053523 11.431717,8.3034955 11.94963,8.1718993 l 0.135179,-0.034347 0.217188,0.086901 0.217188,0.086901 0.06375,0.1931749 0.06375,0.1931749 -0.09151,0.3272934 C 12.28118,10.005006 11.989926,10.791942 11.634694,11.512041 l -0.252623,0.512097 -0.171926,0.09867 c -0.198875,0.114139 -0.316146,0.121445 -0.475202,0.0296 z"
     id="path36" /><path
     style="font-variation-settings:'wght' 800;opacity:1;fill:#ffffff;fill-opacity:1;stroke:#ffffff;stroke-width:0.0195822;stroke-linecap:square;stroke-linejoin:round;stroke-miterlimit:0;stroke-dasharray:none;stroke-opacity:1;paint-order:normal"
     d="m 16.024804,22.656668 c -0.305233,-0.141623 -0.648136,-0.483824 -0.746649,-0.745121 -0.09073,-0.240665 -0.08839,-0.753694 0.0047,-1.020633 0.07385,-0.211855 0.07306,-0.213009 -0.636423,-0.930524 -0.968366,-0.979323 -2.087571,-1.988036 -2.427522,-2.187868 -0.277344,-0.16303 -0.295337,-0.16479 -1.33812,-0.130867 -0.874797,0.02846 -2.3224445,0.195782 -2.9657283,0.342788 -0.093801,0.02144 -0.205607,0.150419 -0.3114618,0.359314 -0.096617,0.190665 -0.2769437,0.406869 -0.4346134,0.521084 -0.2442114,0.176906 -0.3170528,0.195211 -0.7768059,0.195211 -0.4716178,0 -0.5272078,-0.015 -0.7898148,-0.213079 -0.3267011,-0.246429 -0.5768522,-0.692357 -0.5747896,-1.024642 0.00188,-0.302319 0.1925856,-0.705589 0.4464755,-0.94411 0.1133893,-0.106526 0.3957884,-0.253348 0.6386438,-0.332037 L 6.5480319,16.405117 6.8689773,15.529582 C 7.2581025,14.468054 7.5807466,13.357931 7.765702,12.444221 7.8875982,11.842033 7.8952766,11.696234 7.8320123,11.18511 7.7088915,10.190397 7.2566299,8.2888042 7.0884845,8.0588512 7.0471558,8.0023309 6.8828546,7.9267683 6.7233708,7.8909347 6.0675166,7.7435743 5.6602014,7.2587018 5.6602014,6.6253264 c 0,-0.3618618 0.1940397,-0.7977096 0.4524851,-1.0163626 0.4644627,-0.3929498 1.2928748,-0.3405226 1.7430923,0.1103141 0.1023362,0.102477 0.2454703,0.3042003 0.3180756,0.4482739 0.072605,0.1440737 0.1396627,0.2707678 0.1490163,0.2815425 0.00935,0.010775 0.6289802,0.047551 1.3769482,0.081725 1.1343241,0.051826 1.4222841,0.046163 1.7357191,-0.034135 0.896464,-0.2296634 1.985929,-0.9505514 3.843732,-2.5433595 L 15.95953,3.370097 15.936757,2.8700358 c -0.03318,-0.7285229 0.184891,-1.1080212 0.819781,-1.4266382 0.843289,-0.4232009 1.911869,0.2820334 1.911869,1.2617825 0,0.3203015 -0.202323,0.6705341 -0.570079,0.9868365 L 17.86597,3.891866 18.043169,4.7037659 c 0.244761,1.1214515 0.660334,2.7332318 0.863845,3.3503731 0.267699,0.8117892 0.672082,1.1762344 2.307085,2.079232 1.233376,0.681183 1.254284,0.686418 1.768964,0.442935 0.471392,-0.223004 0.689027,-0.241916 1.114721,-0.09687 0.360529,0.122844 0.665244,0.409754 0.875178,0.824039 0.197771,0.390282 0.197862,0.5671 4.88e-4,0.953914 -0.280174,0.549084 -0.67248,0.830122 -1.233002,0.88329 -0.310569,0.02946 -0.43828,0.0081 -0.712874,-0.119098 -0.420702,-0.194915 -0.420797,-0.194878 -1.71618,0.656789 -0.645953,0.424691 -1.187193,0.843993 -1.592581,1.233782 -0.57586,0.553703 -0.637396,0.639212 -0.988598,1.373746 -0.649135,1.357657 -1.148956,2.847983 -1.21653,3.62735 -0.03616,0.417013 -0.03061,0.437531 0.19976,0.739333 0.214055,0.280428 0.236782,0.349349 0.235235,0.713382 -0.0021,0.486131 -0.136944,0.79854 -0.467796,1.083514 -0.405462,0.349241 -0.975197,0.430309 -1.45608,0.207188 z m -1.707151,-9.616533 c 0.06629,-0.03405 0.224133,-0.287004 0.350764,-0.562119 0.30199,-0.656094 0.932105,-2.5319455 0.932105,-2.7748757 0,-0.1046879 -0.06114,-0.2892728 -0.135872,-0.4101879 -0.12632,-0.2043897 -0.159937,-0.2198453 -0.478178,-0.2198453 -0.270967,0 -0.371168,0.030723 -0.480799,0.1474197 -0.221649,0.2359347 -0.71305,1.2828882 -0.993925,2.1176062 -0.384945,1.143999 -0.343511,1.634528 0.149793,1.773362 0.216493,0.06093 0.447486,0.0358 0.656112,-0.07136 z m -3.130715,-0.876037 c 0.188771,-0.09002 0.272619,-0.209103 0.517045,-0.734334 0.311312,-0.668957 0.600437,-1.4384461 0.83226,-2.215014 0.180371,-0.6042128 0.131943,-0.8406397 -0.206233,-1.0068303 -0.343934,-0.1690196 -0.589236,-0.060766 -0.939037,0.4144047 -0.416714,0.5660659 -0.940551,1.9445206 -1.056311,2.7796336 -0.04583,0.330639 0.147093,0.694113 0.421725,0.794539 0.09737,0.0356 0.18338,0.06706 0.191137,0.06989 0.0078,0.0028 0.115494,-0.0432 0.239414,-0.102289 z"
     id="path45" /></svg>
