<?xml version="1.0" encoding="UTF-8" standalone="no"?>
<svg
   width="256"
   height="128"
   version="1.1"
   id="svg2"
   sodipodi:docname="New_Super_Mario_Bros._Wii_logo.svg"
   inkscape:version="1.4 (e7c3feb100, 2024-10-09)"
   inkscape:export-filename="New_Super_Mario_Bros._Wii_logo.svg"
   inkscape:export-xdpi="96"
   inkscape:export-ydpi="96"
   xmlns:inkscape="http://www.inkscape.org/namespaces/inkscape"
   xmlns:sodipodi="http://sodipodi.sourceforge.net/DTD/sodipodi-0.dtd"
   xmlns="http://www.w3.org/2000/svg"
   xmlns:svg="http://www.w3.org/2000/svg">
  <defs
     id="defs2" />
  <sodipodi:namedview
     id="namedview2"
     pagecolor="#505050"
     bordercolor="#eeeeee"
     borderopacity="1"
     inkscape:showpageshadow="0"
     inkscape:pageopacity="0"
     inkscape:pagecheckerboard="0"
     inkscape:deskcolor="#505050"
     inkscape:zoom="1.1962737"
     inkscape:cx="18.39044"
     inkscape:cy="27.585659"
     inkscape:window-width="1876"
     inkscape:window-height="755"
     inkscape:window-x="0"
     inkscape:window-y="0"
     inkscape:window-maximized="1"
     inkscape:current-layer="g2" />
  <metadata
     id="metadata34">image/svg+xml</metadata>
  <g
     inkscape:groupmode="layer"
     id="layer2"
     inkscape:label="BG">
    <rect
       style="fill:#ea0000;stroke:#000000;stroke-width:0;fill-opacity:1;stroke-dasharray:none"
       id="rect30"
       width="256"
       height="128"
       x="0.32779104"
       y="0.32779104" />
  </g>
  <g
     id="g2"
     transform="matrix(0.15231602,0,0,0.15448218,-2.5670327,7.7402052)"
     style="display:inline">
    <title
       id="title2">Layer 1</title>
    <path
       fill="#000000"
       fill-rule="nonzero"
       d="m 1598.9359,332.37695 -315.6758,0.007 v -20.04773 c 0,-9.7515 -3.2059,-19.18445 -9.0653,-27.35782 5.8594,-10.0274 9.0297,-21.45596 9.0297,-33.45067 0,-18.21494 -7.3172,-34.71736 -19.1349,-46.66252 l -52.5994,-52.59969 c -11.7612,-11.88853 -27.9879,-19.25519 -45.8633,-19.25519 H 1026.227 c -25.7159,-0.007 -42.87673,11.75407 -52.35189,27.57008 l -8.11707,-8.12384 C 953.36735,140.45484 936.23485,133.01035 917.3264,133.01035 H 716.58733 v 17.07562 c -12.92908,-12.48297 -31.2923,-20.30251 -51.65173,-20.30251 -36.01208,0 -65.81152,24.44226 -70.22729,55.9469 l -28.31281,-9.3127 40.15887,-38.90665 -51.7785,-8.08846 50.67462,-67.99817 -86.96295,30.58467 0.21906,-45.25428 -52.81171,26.44492 -15.80212,-64.43163 -45.05585,66.42721 -38.55283,-24.881 -20.72003,44.73769 -67.51727,-26.00617 17.86111,61.16227 -55.51491,9.30562 20.91078,37.72487 -85.74577,27.78238 71.74844,23.60017 -40.15891,38.88542 51.80684,8.08847 -40.43517,54.22025 c -3.29767,-0.5025 -6.65193,-0.84918 -10.08376,-0.84918 -12.93587,0 -25.20651,3.7435 -35.8145,10.61469 -10.60062,-6.87119 -22.87128,-10.61469 -35.80714,-10.61469 -36.98183,0 -67.07116,30.68369 -67.07116,68.40149 v 207.56818 l 52.60677,52.61395 h 514.0592 v -20.05493 c 12.99249,14.37952 32.09167,23.47278 53.34271,23.47278 22.77899,0 43.0603,-10.45197 56.01764,-26.63599 l 23.23193,23.21814 h 77.45947 v -0.3114 c 12.79431,-1.09692 24.61212,-5.33575 34.52655,-11.85321 l 12.15747,12.16461 h 141.62192 v -20.04785 c 12.9857,14.37244 32.0781,23.47284 53.3359,23.47284 25.8009,0 48.4102,-13.39581 60.7872,-33.3587 l 12.4123,12.41217 c 12.8934,12.90051 30.9593,20.94653 50.9509,20.94653 16.0703,0 30.9102,-5.20123 42.7987,-13.9549 l 10.5365,10.52991 h 77.4596 v -18.84485 l 1.9531,1.95313 c 12.1715,12.53247 29.042,20.31671 47.6605,20.31671 12.9428,0 25.2066,-3.75049 35.814,-10.62183 10.6007,6.87134 22.8712,10.62183 35.8071,10.62183 14.8466,0 28.5966,-4.95361 39.7134,-13.31799 l 9.893,9.89301 h 137.4542 V 384.99076 l -52.6068,-52.6138 z"
       id="path27283" />
    <path
       fill="#ffffff"
       fill-rule="nonzero"
       d="m 533.12402,220.18719 62.54218,-20.2742 -54.10699,-17.79036 36.82617,-35.67268 -47.2428,-7.38786 37.90918,-50.85889 -63.83746,22.44669 0.21228,-42.50152 -48.40335,24.22997 -12.66693,-51.66559 -35.6441,52.53601 -36.63538,-23.63554 -19.53854,42.17599 -54.17719,-20.8757 14.55609,49.84694 -51.75021,8.66872 19.62286,35.41794 -62.54897,20.2742 54.11378,17.79034 -36.81938,35.65857 47.2643,7.36664 -37.93745,50.8801 63.83748,-22.43253 -0.20493,42.45901 48.38861,-24.1875 12.68167,51.63022 35.6441,-52.52182 36.64215,23.62842 19.53116,-42.12643 54.17776,20.86862 -14.57758,-49.84692 51.75757,-8.67583 -19.61609,-35.425 z"
       id="path27287" />
    <path
       fill="#ce000c"
       fill-rule="nonzero"
       d="m 372.68369,346.91626 -10.9686,-44.67401 -45.99731,22.97031 0.19815,-40.95172 -51.25488,17.98853 30.99512,-41.56039 -44.7943,-6.99159 35.00719,-33.8894 -44.52538,-14.64131 49.946,-16.18398 -18.92938,-34.15833 49.70541,-8.33612 -12.75189,-43.66914 46.91727,18.07341 18.88693,-40.78193 35.59485,22.96328 30.52127,-44.98538 10.96124,44.72355 45.99731,-23.01989 -0.1908,40.99422 51.25488,-18.02386 -30.97363,41.54619 44.76605,7.00574 -35.00781,33.91064 44.51862,14.64838 -49.92505,16.17691 18.91577,34.17245 -49.71954,8.32909 12.78015,43.69037 -46.92459,-18.08759 -18.88013,40.74658 -35.60165,-22.96329 -30.52127,44.9783 z"
       id="path27291" />
    <path
       fill="#ffffff"
       fill-rule="nonzero"
       d="m 425.27289,169.77148 -21.00308,2.32817 c -9.43268,1.04733 -19.31149,8.78195 -22.00793,17.23129 l -12.23502,38.65898 c -2.68909,8.45644 2.80908,14.4644 12.26331,13.42415 0,0 35.62317,-3.96286 36.70615,-4.11145 0.29721,-0.90579 5.09509,-16.07077 5.39911,-16.99779 -1.08981,0.12738 -34.78815,3.89915 -34.78815,3.89915 l 2.89459,-9.16408 19.09241,-2.12296 c 9.44006,-1.06854 19.31152,-8.78902 21.9938,-17.19591 l 3.97699,-12.54665 c 2.68173,-8.44229 -2.84476,-14.47147 -12.29218,-13.40292 m -10.19696,26.36 -17.19592,1.91774 0.15567,-0.50243 2.7457,-8.63335 17.19592,-1.91066 -2.90137,9.12869 z M 363.89124,154.3942 c -0.31137,0.97656 -18.45554,58.00616 -18.45554,58.00616 0,0 -7.64264,-54.74388 -7.85492,-55.08356 -0.50952,0.0566 -18.28571,2.02388 -19.33304,2.15834 -0.30399,0.96948 -28.75156,90.77747 -29.07709,91.75403 1.03317,-0.12738 18.00943,-2.0239 19.0426,-2.12296 0.31873,-0.99777 18.42725,-57.63109 18.42725,-57.63109 l 8.17365,54.65187 c 0,0 0.29721,-0.94827 0,0 1.01901,-0.0778 18.01678,-1.98849 19.0426,-2.1088 0.31137,-0.96948 28.75894,-90.75626 29.07767,-91.75403 -1.01901,0.10614 -18.02417,2.0168 -19.04318,2.13002 m 145.34473,5.78859 c -0.31873,0.9978 -11.91681,37.57628 -11.91681,37.57628 -3.29089,10.98274 -11.33658,18.7032 -11.33658,18.7032 0,0 -3.43921,-6.31224 0.12,-17.43651 0,0 11.85342,-37.36398 11.92422,-37.57628 -1.02637,0.12032 -17.0827,1.87529 -18.09494,2.00267 -0.0634,0.21228 -11.90268,37.59749 -11.90268,37.59749 -3.42502,10.00618 -11.34335,18.64661 -11.34335,18.64661 0,0 -2.66815,-8.53427 0.12735,-17.39406 0,0 11.52057,-36.38742 11.83194,-37.34276 -1.02637,0.0991 -17.05438,1.89651 -18.08755,2.00267 -0.31137,0.96947 -11.83929,37.35689 -11.83929,37.35689 -4.59973,14.48561 0.88486,24.88101 3.81454,29.90533 l 20.53601,-2.23618 1.13223,-1.07564 4.68466,-5.13754 1.9599,4.05484 0.76428,1.16763 20.76981,-2.29988 c 16.4668,-12.43343 18.41992,-18.43431 23.01282,-32.927 0,0 11.63379,-36.62093 11.93781,-37.59749 -1.03314,0.1203 -17.06854,1.91066 -18.09436,2.00972"
       id="path27303" />
    <path
       fill="#ffffff"
       fill-rule="nonzero"
       d="m 1230.6477,587.47504 h 42.523 v -47.52582 h -42.523 z"
       id="path27305" />
    <path
       fill="#ffffff"
       fill-rule="nonzero"
       d="m 840.7439,442.52496 h -0.007 v -45.15518 c 0,-26.25391 -23.88348,-47.51883 -53.34271,-47.51883 h -53.34271 v 237.62213 h 42.52979 V 397.36267 l 21.62585,0.007 v 47.52582 h -10.81293 v 47.52591 h 10.81293 v 47.5329 h -10.81293 v 47.51868 c 29.45923,0 53.34271,-21.27191 53.34271,-47.52582 h -0.0991 l 0.0991,-0.007 v -45.13403 h 0.007 c 0,-17.54968 -13.29645,-26.13348 -13.29645,-26.13348 0,0 13.29645,-8.60498 13.29645,-26.14771"
       id="path27317" />
    <path
       fill="#ffffff"
       fill-rule="nonzero"
       d="m 1035.6971,346.43515 c -29.4598,0 -53.35006,22.80051 -53.35006,50.93671 v 142.57761 c 0,28.12909 23.89026,50.93671 53.35006,50.93671 29.4524,0 53.3355,-22.80762 53.3355,-50.93671 V 397.37186 c 0,-28.1362 -23.8831,-50.93671 -53.3355,-50.93671 m 10.8056,193.51431 h -21.6184 V 397.37182 h 21.6184 z"
       id="path27321" />
    <path
       fill="#ffffff"
       fill-rule="nonzero"
       d="m 964.89587,442.52496 h -0.0141 v -45.15518 c 0,-26.25391 -23.88348,-47.51883 -53.34271,-47.51883 h -53.33594 v 237.62213 h 42.52979 v -190.1033 h 21.61902 v 47.52579 H 911.5249 v 47.52588 h 10.82703 v 95.05164 h 42.52985 v -92.66693 h 0.0141 c 0,-17.5426 -13.29706,-26.13348 -13.29706,-26.13348 0,0 13.29706,-8.60501 13.29706,-26.14771"
       id="path27325" />
    <path
       fill="#ffffff"
       fill-rule="nonzero"
       d="m 1159.8401,346.43515 c -29.4592,0 -53.3427,22.80051 -53.3427,50.93671 v 41.52499 c 0,43.4498 64.1556,39.961 64.1556,70.59528 v 30.45734 h -21.6258 v -47.53302 h -42.5298 v 47.53302 c 0,28.12909 23.8835,50.93671 53.3427,50.93671 29.4598,0 53.3361,-22.80762 53.3361,-50.93671 v -41.6665 c 0,-43.44272 -64.149,-39.81961 -64.149,-70.46793 v -30.44318 h 21.6258 v 47.52588 h 42.523 v -47.52588 c 0,-28.1362 -23.8761,-50.93671 -53.3359,-50.93671"
       id="path27329" />
    <path
       fill="#ffffff"
       fill-rule="nonzero"
       d="m 1478.9415,397.37177 h 42.5298 v -47.52591 h -42.5298 z"
       id="path27331" />
    <path
       fill="#ffffff"
       fill-rule="nonzero"
       d="m 1478.9415,587.47504 h 42.5298 V 414.83655 h -42.5298 z"
       id="path27333" />
    <path
       fill="#ffffff"
       fill-rule="nonzero"
       d="m 1538.9362,397.37177 h 42.5224 v -47.52591 h -42.5224 z"
       id="path27335" />
    <path
       fill="#ffffff"
       fill-rule="nonzero"
       d="m 1538.9362,587.47504 h 42.5224 V 414.83655 h -42.5224 z"
       id="path27337" />
    <path
       fill="#ffffff"
       fill-rule="nonzero"
       d="m 1418.9502,539.94867 h -21.619 V 349.85236 h -42.5366 v 190.09631 h -21.6189 V 349.85236 h -42.5299 v 190.09631 c 0,28.13617 22.2135,50.94379 49.5996,50.94379 14.0748,0 26.7843,-6.02209 35.8213,-15.6886 9.022,9.6665 21.7248,15.6886 35.7998,15.6886 27.4001,0 49.6136,-22.80762 49.6136,-50.94379 V 349.85236 h -42.5299 z"
       id="path27349" />
    <path
       fill="#ffffff"
       fill-rule="nonzero"
       d="m 363.82843,396.20346 -10.88367,-44.3273 c -7.19711,-3.45331 -15.29263,-5.4418 -23.89767,-5.4418 -29.45923,0 -53.34271,22.80759 -53.34271,50.93671 v 190.09628 h 42.52982 v -47.5329 h 21.62582 v 47.5329 h 42.52982 V 397.37107 c 0,-7.60721 -1.79742,-14.78992 -4.91788,-21.272 l -13.64352,20.1044 z m -23.96841,96.21219 H 318.2342 v -95.04459 h 21.62582 z"
       id="path27353" />
    <path
       fill="#ffffff"
       fill-rule="nonzero"
       d="m 917.32416,150.48091 h -59.12451 v 145.3091 h 43.88171 V 193.82456 h 15.2428 v 53.5338 c 28.11469,0 50.90839,-21.68951 50.90839,-48.4458 0,-26.74213 -22.7937,-48.43164 -50.90839,-48.43164"
       id="path27357" />
    <path
       fill="#ffffff"
       fill-rule="nonzero"
       d="m 787.39435,299.02396 c 29.45923,0 53.34271,-20.85449 53.34271,-46.58467 V 150.48092 H 795.02283 V 252.43929 H 779.76587 V 150.48092 h -45.71423 v 101.95837 c 0,25.73018 23.88293,46.58467 53.34271,46.58467"
       id="path27361" />
    <path
       fill="#ffffff"
       fill-rule="nonzero"
       d="m 1040.4028,241.0728 h 48.6371 v -35.88498 h -48.6371 z"
       id="path27363" />
    <path
       fill="#ffffff"
       fill-rule="nonzero"
       d="m 1026.23,150.46677 c -30.96682,0 -43.87441,21.77441 -43.88125,43.35779 v 58.60057 c 0,21.59044 12.91443,43.36485 43.88125,43.36485 h 62.8043 V 255.28404 H 1026.23 v -64.30426 h 62.8043 V 150.48091 H 1026.23 v -0.0142 z"
       id="path27375" />
    <path
       fill="#ffffff"
       fill-rule="nonzero"
       d="m 1198.6279,233.7693 c 8.9589,-8.80318 14.5285,-21.16585 14.5285,-34.85182 0,-26.74919 -21.2794,-48.43871 -47.5332,-48.43871 h -59.124 v 145.30907 h 43.8669 V 193.82242 h 15.2711 v 101.96542 h 47.5401 v -35.78592 c 0,-0.092 0.01,-0.17691 0.01,-0.27597 0,-10.1902 -5.5838,-19.39674 -14.5568,-25.95665"
       id="path27379" />
    <path
       fill="#ffffff"
       fill-rule="nonzero"
       d="m 524.00153,587.47504 h 42.52985 v -237.6221 h -42.52985 z"
       id="path27381" />
    <path
       fill="#ffffff"
       fill-rule="nonzero"
       d="m 637.33783,346.43515 c -29.45978,0 -53.34271,22.80051 -53.34271,50.93671 v 142.57761 c 0,28.12909 23.88293,50.93671 53.34271,50.93671 29.45923,0 53.34271,-22.80762 53.34271,-50.93671 V 397.37186 c 0,-28.1362 -23.88348,-50.93671 -53.34271,-50.93671 m 10.81293,193.51431 H 626.52491 V 397.37182 h 21.62585 z"
       id="path27393" />
    <path
       fill="#ffffff"
       fill-rule="nonzero"
       d="m 506.54858,442.52496 h -0.0141 v -45.15518 c 0,-26.25391 -23.88293,-47.51883 -53.34274,-47.51883 h -53.33536 v 237.62213 h 42.52246 v -190.1033 h 21.62582 v 47.52579 H 453.1776 v 47.52588 h 10.82706 v 95.05164 h 42.52982 v -92.66693 h 0.0141 c 0,-17.5426 -13.29645,-26.13348 -13.29645,-26.13348 0,0 13.29645,-8.60501 13.29645,-26.14771"
       id="path27397" />
    <path
       fill="#ffffff"
       fill-rule="nonzero"
       d="m 718.27155,193.82516 c 0,-25.72311 -23.88293,-46.57759 -53.33539,-46.57759 -29.45978,0 -53.3501,20.85448 -53.3501,46.57759 h 0.007 c 0,25.50374 18.65369,44.40511 45.53705,44.40511 h 15.604 v 14.21671 h -61.14844 c 0,25.72313 23.89032,46.57762 53.3501,46.57762 29.45245,0 53.33539,-20.85449 53.33539,-46.57762 0,-25.50374 -18.65369,-44.40511 -45.53705,-44.40511 h -15.604 v -14.21671 h 61.14105 z"
       id="path27401" />
    <path
       fill="#ffffff"
       fill-rule="nonzero"
       d="m 208.63547,346.43515 c -14.07489,0 -26.7843,6.01498 -35.80714,15.68161 -9.02963,-9.66663 -21.73903,-15.68161 -35.81393,-15.68161 -27.39345,0 -49.60633,22.80051 -49.60633,50.93671 v 190.09628 h 42.52982 V 397.37186 h 21.62582 v 190.09628 h 42.52982 V 397.37186 h 21.62582 V 587.46814 H 258.2418 V 397.37186 c 0,-28.1362 -22.20607,-50.93671 -49.60632,-50.93671"
       id="path27405" />
    <path
       fill="#ffffff"
       fill-rule="nonzero"
       d="m 1237.5317,371.52194 h 3.793 v -18.39178 h 6.8926 v -3.27652 h -17.5498 v 3.27652 h 6.8642 z"
       id="path27409" />
    <path
       fill="#ffffff"
       fill-rule="nonzero"
       d="m 1262.0646,366.81757 h -0.057 l -5.9868,-16.9624 h -5.3357 v 21.6683 h 3.6091 v -16.7218 h 0.057 l 6.015,16.7218 h 3.121 l 6.0151,-16.7218 h 0.057 v 16.7218 h 3.6089 v -21.6683 h -5.279 l -5.8243,16.9624 z"
       id="path27413" />
  </g>
</svg>
