<?xml version="1.0" encoding="UTF-8" standalone="no"?>
<!-- Created with Inkscape (http://www.inkscape.org/) -->

<svg
   width="122.40168mm"
   height="115.27467mm"
   viewBox="0 0 122.40168 115.27467"
   version="1.1"
   id="svg1"
   xmlns="http://www.w3.org/2000/svg"
   xmlns:svg="http://www.w3.org/2000/svg">
  <defs
     id="defs1" />
  <g
     id="layer1"
     transform="translate(-45.562344,-116.73339)">
    <g
       id="g20">
      <path
         id="rect16"
         style="fill:#ffffff;fill-opacity:1;stroke-width:0.264583"
         d="m 66.11121,168.36802 c -5.305597,0 -9.576676,4.27108 -9.576676,9.57667 v 44.48618 c 0,5.3056 4.271079,9.57719 9.576676,9.57719 h 25.30905 v -31.06219 c 0,-6.15745 4.957109,-11.11456 11.11457,-11.11456 h 8.79067 c 6.15746,0 11.11457,4.95711 11.11457,11.11456 v 31.06219 h 23.37584 c 5.30559,0 9.57667,-4.27159 9.57667,-9.57719 v -44.48618 c 0,-5.30559 -4.27108,-9.57667 -9.57667,-9.57667 z" />
      <path
         style="fill:#ffffff;fill-opacity:1;stroke-width:0.267623"
         d="m 47.501727,172.52561 c 12.495608,-12.56799 40.855222,-41.03057 53.605893,-53.32744 3.44399,-3.32141 9.32073,-3.2811 12.71451,0.0913 12.47081,12.39212 40.04742,40.92803 52.25691,53.59025 3.32556,3.44887 2.1346,6.23429 -2.65645,6.2179 L 50.063083,178.70994 c -4.791054,-0.0164 -5.939366,-2.78675 -2.561356,-6.18433 z"
         id="path19" />
    </g>
    <rect
       style="fill:#ffffff;fill-opacity:1;stroke-width:0.300046"
       id="rect19"
       width="20.889063"
       height="56.486088"
       x="130.45978"
       y="119.27744"
       ry="4.8353362" />
  </g>
</svg>
