<?xml version="1.0" encoding="UTF-8" standalone="no"?>
<!-- Created with Inkscape (http://www.inkscape.org/) -->

<svg
   width="154.75999mm"
   height="132.3mm"
   viewBox="0 0 154.76 132.3"
   version="1.1"
   id="svg1"
   xmlns="http://www.w3.org/2000/svg"
   xmlns:svg="http://www.w3.org/2000/svg">
  <defs
     id="defs1" />
  <g
     id="layer1"
     transform="translate(-68.490133,-93.960937)">
    <rect
       style="fill:#ffffff;stroke-width:0.219786"
       id="rect1"
       width="73.864639"
       height="51.054783"
       x="149.3998"
       y="150.31616"
       ry="6.5231814"
       transform="matrix(1,0,-0.22551618,0.97423942,0,0)" />
    <g
       id="path1"
       transform="matrix(0.8051,0,0,0.83500976,49.861227,44.077638)">
      <path
         style="fill:#ffffff;fill-opacity:0;stroke-linejoin:round"
         d="M 72.254762,176.90093 71.990179,97.460532 h 33.221981 l 13.6495,10.606798 h 39.03278 l 0.13229,22.43772 -11.85602,47.029 z"
         id="path7" />
      <path
         style="fill:#ffffff;stroke-linejoin:round"
         d="m 77.135172,93.960937 c -6.149837,0 -8.663388,2.321406 -8.644938,8.001843 l 0.263672,74.94933 c 0.0065,1.91696 1.553797,3.47205 3.470703,3.48828 l 73.916011,0.63281 c 1.61462,0.0137 3.02911,-1.07884 3.42383,-2.64453 l 11.85547,-47.02734 c 0.0727,-0.28661 0.1088,-0.58128 0.10742,-0.87696 l -0.13281,-20.5666 c -0.0191,-3.37545 -1.29403,-5.35103 -5.23057,-5.35136 H 120.0625 l -12.70312,-9.869144 c -0.61388,-0.476996 -1.36908,-0.736059 -2.14649,-0.736329 z m -1.633219,7.000003 h 28.509767 l 11.53382,8.88692 c 0.61388,0.477 3.47383,1.81183 5.18668,1.81209 l 33.68184,-0.0935 0.10938,18.51367 -11.07422,43.92969 -67.707033,-0.58008 z"
         id="path8" />
    </g>
  </g>
</svg>
