<?xml version="1.0" encoding="UTF-8" standalone="no"?>
<!-- Created with Inkscape (http://www.inkscape.org/) -->

<svg
   width="64mm"
   height="64mm"
   viewBox="0 0 64 64"
   version="1.1"
   id="svg1"
   xmlns="http://www.w3.org/2000/svg"
   xmlns:svg="http://www.w3.org/2000/svg">
  <defs
     id="defs1">
    <mask
       maskUnits="userSpaceOnUse"
       id="mask-powermask-path-effect20">
      <path
         id="mask-powermask-path-effect20_box"
         style="fill:#ffffff;fill-opacity:1"
         d="M 4.4756057,4.4755161 H 59.524394 V 59.524484 H 4.4756057 Z" />
      <g
         id="g20"
         style="opacity:1"
         clip-path="none">
        <g
           id="g19"
           style="opacity:1">
          <path
             style="font-size:43.9078px;baseline-shift:baseline;display:inline;overflow:visible;vector-effect:none;stroke-linecap:round;stroke-linejoin:round;paint-order:stroke fill markers;enable-background:accumulate;stop-color:#000000;stop-opacity:1"
             d="m 31.957031,15.443359 c -1.83409,0 -3.52451,0.212919 -5.0625,0.652344 a 1.0001,1.0001 0 0 0 -0.0039,0.002 c -1.462394,0.426532 -2.813172,0.962609 -4.048828,1.611328 a 1.0001,1.0001 0 0 0 -0.449219,1.289063 l 1.361328,3.074219 a 1.0001,1.0001 0 0 0 1.34961,0.49414 c 0.979758,-0.475882 2.003219,-0.881772 3.070312,-1.21875 a 1.0001,1.0001 0 0 0 0.02344,-0.0078 c 0.987779,-0.337924 2.150207,-0.515625 3.496093,-0.515625 1.580148,0 2.640494,0.345907 3.308594,0.90625 0.675277,0.566361 1.003906,1.294603 1.003906,2.484375 0,0.778156 -0.118923,1.387514 -0.314453,1.84375 -0.197039,0.459757 -0.568739,0.996473 -1.148437,1.576172 a 1.0001,1.0001 0 0 0 -0.01758,0.01563 c -0.573416,0.600721 -1.429862,1.389969 -2.554688,2.341796 -0.97841,0.825534 -1.775751,1.632362 -2.390625,2.441407 a 1.0001,1.0001 0 0 0 -0.01563,0.02148 c -0.589283,0.818451 -1.025964,1.702208 -1.292969,2.636719 a 1.0001,1.0001 0 0 0 -0.0059,0.02344 c -0.233505,0.900661 -0.339844,1.931734 -0.339844,3.105469 v 1.185547 a 1.0001,1.0001 0 0 0 1,1 H 32 a 1.0001,1.0001 0 0 0 1,-1 v -0.746094 c 0,-0.779918 0.0833,-1.407214 0.220703,-1.865234 a 1.0001,1.0001 0 0 0 0.0039,-0.01172 c 0.130408,-0.456425 0.39417,-0.95177 0.820313,-1.480469 0.471756,-0.548792 1.17696,-1.23145 2.107422,-2.021484 l 0.0078,-0.0059 c 1.068467,-0.890721 1.995025,-1.727447 2.78125,-2.513672 0.862795,-0.862794 1.537805,-1.81234 2.001953,-2.837891 0.513318,-1.098266 0.75,-2.371492 0.75,-3.796875 0,-2.585012 -0.877183,-4.795881 -2.611328,-6.363281 -1.746878,-1.578909 -4.17926,-2.320313 -7.125,-2.320313 z m 0,2 c 2.615915,0 4.485808,0.632042 5.783203,1.804688 1.310131,1.184156 1.953125,2.721877 1.953125,4.878906 0,1.206123 -0.201834,2.181491 -0.564453,2.955078 a 1.0001,1.0001 0 0 0 -0.0059,0.01367 c -0.355378,0.78691 -0.879565,1.535816 -1.595703,2.251953 -0.733872,0.733872 -1.618701,1.533488 -2.654297,2.396485 a 1.0001,1.0001 0 0 0 -0.0078,0.0059 c -0.991619,0.841374 -1.771074,1.586436 -2.351562,2.263672 a 1.0001,1.0001 0 0 0 -0.01758,0.02148 c -0.56399,0.696692 -0.973381,1.429295 -1.19336,2.199219 -0.18918,0.635624 -0.254188,1.374884 -0.271484,2.171875 h -1.105469 v -0.185547 c 0,-1.044608 0.09912,-1.909664 0.273438,-2.587891 0.20035,-0.697585 0.524033,-1.35891 0.982422,-1.998046 0.496979,-0.652065 1.187285,-1.361636 2.078125,-2.113282 a 1.0001,1.0001 0 0 0 0,-0.002 c 1.153765,-0.976263 2.047943,-1.794898 2.703125,-2.480469 0.703842,-0.705417 1.237936,-1.424976 1.566406,-2.191406 0.331365,-0.773182 0.476562,-1.654656 0.476562,-2.632812 0,-1.620327 -0.579171,-3.059849 -1.71875,-4.015625 -1.146755,-0.961795 -2.719817,-1.375 -4.59375,-1.375 -1.517739,0 -2.897085,0.2008 -4.130859,0.621093 -0.820382,0.259445 -1.592902,0.602708 -2.369141,0.939454 l -0.554687,-1.25 c 0.887156,-0.409835 1.778311,-0.815086 2.80664,-1.115235 1.330653,-0.380186 2.833185,-0.576172 4.511719,-0.576172 z m -1.318359,24.47461 c -0.975527,0 -1.899434,0.294124 -2.615235,0.890625 a 1.0001,1.0001 0 0 0 -0.02148,0.01953 c -0.80349,0.708961 -1.085937,1.796991 -1.085937,3.033203 0,1.211195 0.292304,2.284876 1.0625,3.009766 a 1.0001,1.0001 0 0 0 0.01953,0.01953 c 0.712457,0.633296 1.652752,0.955078 2.640625,0.955078 0.94513,0 1.854023,-0.334001 2.552734,-0.955078 0.80524,-0.715768 1.125,-1.808843 1.125,-3.029297 0,-1.245221 -0.310896,-2.354785 -1.148437,-3.052734 -0.701807,-0.58484 -1.5975,-0.890625 -2.529297,-0.890625 z m 0,2 c 0.531797,0 0.896067,0.134418 1.248047,0.427734 0.216246,0.180205 0.429687,0.594728 0.429687,1.515625 0,0.887121 -0.204576,1.314225 -0.453125,1.535156 -0.355075,0.315623 -0.706146,0.449219 -1.224609,0.449219 -0.585674,0 -0.95682,-0.147339 -1.294922,-0.443359 -0.22273,-0.214064 -0.427734,-0.652534 -0.427734,-1.541016 0,-0.92268 0.213669,-1.349504 0.404296,-1.521484 0.334971,-0.274376 0.721196,-0.421875 1.31836,-0.421875 z"
             id="path18" />
          <path
             style="font-size:43.9078px;baseline-shift:baseline;display:inline;overflow:visible;vector-effect:none;stroke-linecap:round;stroke-linejoin:round;paint-order:stroke fill markers;enable-background:accumulate;stop-color:#000000;stop-opacity:1"
             d="m 28.926454,38.220706 q 0,-1.668497 0.307355,-2.854007 0.351264,-1.229419 1.141602,-2.327113 0.834248,-1.097695 2.239298,-2.283206 1.712404,-1.448957 2.634468,-2.414929 0.965971,-0.965972 1.361141,-1.888035 0.395171,-0.922064 0.395171,-2.239298 0,-2.107574 -1.361142,-3.249177 -1.361142,-1.141603 -3.951702,-1.141603 -2.151482,0 -3.819979,0.570801 -1.668495,0.526894 -3.205269,1.273327 L 23.306255,18.59392 q 1.756312,-0.922064 3.863887,-1.536773 2.151482,-0.614709 4.78595,-0.614709 4.171241,0 6.454446,2.063666 2.283206,2.063667 2.283206,5.620198 0,1.975851 -0.658617,3.380901 -0.614709,1.361142 -1.80022,2.546652 -1.141603,1.141603 -2.722284,2.458837 -1.448957,1.229419 -2.239297,2.151483 -0.746433,0.922063 -1.00988,1.844127 Q 32,37.386458 32,38.659784 v 0.746432 h -3.073546 z m -1.009879,7.639957 q 0,-1.624589 0.746432,-2.283205 0.79034,-0.658617 1.975853,-0.658617 1.097695,0 1.888035,0.658617 0.790341,0.658616 0.790341,2.283205 0,1.580681 -0.790341,2.283206 -0.79034,0.702525 -1.888035,0.702525 -1.185513,0 -1.975853,-0.702525 -0.746432,-0.702524 -0.746432,-2.283206 z"
             id="path19" />
        </g>
      </g>
    </mask>
  </defs>
  <g
     id="layer1">
    <path
       style="fill:#ffffff;stroke:#ffffff;stroke-width:7.80279;paint-order:stroke fill markers"
       id="path1"
       clip-path="none"
       mask="url(#mask-powermask-path-effect20)"
       d="M 54.622999,32 A 22.622999,22.623089 0 0 1 32,54.623089 22.622999,22.623089 0 0 1 9.3770008,32 22.622999,22.623089 0 0 1 32,9.3769112 22.622999,22.623089 0 0 1 54.622999,32 Z" />
  </g>
</svg>
