<?xml version="1.0" encoding="UTF-8" standalone="no"?>
<svg
   width="16"
   height="16"
   version="1.1"
   id="svg1"
   xmlns="http://www.w3.org/2000/svg"
   xmlns:svg="http://www.w3.org/2000/svg">
  <defs
     id="defs1" />
  <path
     fill="#8eef97"
     d="M 3,1 C 1.8954305,1 1,1.8954305 1,3 v 10 c 0,1.104569 0.8954305,2 2,2 h 10 c 1.104569,0 2,-0.895431 2,-2 V 3 C 15,1.8954305 14.104569,1 13,1 Z M 3,3 H 13 V 13 H 3 Z"
     id="path1"
     style="fill:#c474ff;fill-opacity:1;paint-order:markers fill stroke" />
  <path
     fill="#e0e0e0"
     d="m 11.742987,10.630445 -1.116115,1.116116 A 0.55805792,0.55805792 0 0 1 9.8377777,10.957467 L 10.001289,10.793956 H 5.2098034 V 6.0024706 l -0.163511,0.163511 A 0.55817111,0.55817111 0 0 1 4.2571985,5.3763293 l 1.1161158,-1.116115 a 0.55805792,0.55805792 0 0 1 0.7890939,0 l 1.1161159,1.116115 A 0.55817111,0.55817111 0 0 1 6.4894302,6.1659816 L 6.3259192,6.0024706 V 9.6778404 H 10.001289 L 9.8377777,9.5137714 A 0.55805792,0.55805792 0 0 1 10.626872,8.7246775 l 1.116115,1.1161158 a 0.55805792,0.55805792 0 0 1 0,0.7890937 z"
     id="path1-7"
     style="fill:#c474ff;fill-opacity:1;stroke-width:0.558058" />
</svg>
