<?xml version="1.0" encoding="UTF-8" standalone="no"?>
<svg
   width="16"
   height="16"
   version="1.1"
   id="svg1"
   xml:space="preserve"
   xmlns="http://www.w3.org/2000/svg"
   xmlns:svg="http://www.w3.org/2000/svg"><defs
     id="defs1" /><g
     id="layer1"
     style="display:inline"><path
       id="rect1"
       style="fill:#ffffff;fill-opacity:1;stroke:#000000;stroke-width:0"
       d="M 7.890625,4.7011719 A 5.3916509,5.3916509 0 0 0 2.4375,10.029297 3.2374347,3.2374347 0 0 0 4.8242188,13.138672 v 0.002 a 1.3261679,1.3261679 0 0 0 1.3261718,1.326172 h 3.6484375 a 1.2552228,1.2552228 0 0 0 1.2558599,-1.255859 v -0.0078 A 3.088369,3.088369 0 0 0 13.556641,10.226562 5.5270585,5.5270585 0 0 0 8.03125,4.7011719 Z m -3.0605469,2 A 1.5775646,2.4379702 15.749934 0 1 6.1464844,8.984375 1.5775646,2.4379702 15.749934 0 1 4.2109375,11.46875 1.5775646,2.4379702 15.749934 0 1 2.8925781,9.1855469 a 1.5775646,2.4379702 15.749934 0 1 1.9375,-2.484375 z m 6.3847659,0 a 2.4379702,1.5775646 74.250066 0 1 1.9375,2.484375 A 2.4379702,1.5775646 74.250066 0 1 11.835938,11.46875 2.4379702,1.5775646 74.250066 0 1 9.8984375,8.984375 2.4379702,1.5775646 74.250066 0 1 11.214844,6.7011719 Z M 6.8867188,12.007812 a 0.24198766,0.87803751 1.9107728 0 1 0.2148437,0.78125 0.24198766,0.87803751 1.9107728 0 1 -0.2441406,0.96875 0.24198766,0.87803751 1.9107728 0 1 -0.2441407,-0.77539 0.24198766,0.87803751 1.9107728 0 1 0.2441407,-0.96875 0.24198766,0.87803751 1.9107728 0 1 0.029297,-0.0059 z m 2.1035156,0.01563 a 0.87803751,0.24198766 88.089227 0 1 0.03125,0.0039 0.87803751,0.24198766 88.089227 0 1 0.2421875,0.970703 0.87803751,0.24198766 88.089227 0 1 -0.2421875,0.775391 0.87803751,0.24198766 88.089227 0 1 -0.2441406,-0.970704 0.87803751,0.24198766 88.089227 0 1 0.2128906,-0.779296 z" /><rect
       style="fill:#ffffff;fill-opacity:1;stroke:#000000;stroke-width:0"
       id="rect3"
       width="2.2382307"
       height="0.6837247"
       x="6.8177681"
       y="4.3326869"
       ry="0.10965384" /><rect
       style="fill:#ffffff;fill-opacity:1;stroke:#000000;stroke-width:0"
       id="rect4"
       width="1.606108"
       height="0.57407075"
       x="7.1467295"
       y="3.842469"
       ry="0.13012256" /><path
       style="fill:#ffffff;fill-opacity:1;stroke:#000000;stroke-width:0"
       id="rect5"
       width="2.4446383"
       height="2.4123871"
       x="6.9340005"
       y="2.0705247"
       d="m 8.1718002,2.0705247 h 0.049667 A 1.1571718,1.1571718 45 0 1 9.3786387,3.2276965 V 4.4829118 H 6.9340005 V 3.3083244 A 1.2377997,1.2377997 135 0 1 8.1718002,2.0705247 Z"
       transform="translate(-0.21787109,-0.53723893)" /><ellipse
       style="fill:#ffffff;fill-opacity:1;stroke:#000000;stroke-width:0"
       id="path5"
       cx="11.952451"
       cy="2.8229797"
       rx="3.3751426"
       ry="0.81380349" /><ellipse
       style="fill:#ffffff;fill-opacity:1;stroke:#000000;stroke-width:0"
       id="path5-6"
       cx="4.0475492"
       cy="2.8250482"
       rx="3.3751426"
       ry="0.81380349" /></g></svg>
